<svg width="29" height="29" viewBox="0 0 29 29" fill="none" xmlns="http://www.w3.org/2000/svg">
<path fill-rule="evenodd" clip-rule="evenodd" d="M0.798828 14.7988C0.798827 22.5308 7.06684 28.7988 14.7988 28.7988C22.5308 28.7988 28.7988 22.5308 28.7988 14.7988C28.7988 7.06684 22.5308 0.798828 14.7988 0.798828C7.06684 0.798827 0.798828 7.06684 0.798828 14.7988ZM9.54883 20.7988L14.7988 15.5489L20.0487 20.7988L20.0488 20.7988L20.0488 20.7988L20.7988 20.0488L15.5488 14.7988L20.7988 9.54883L20.0488 8.79883L14.7988 14.0488L9.54883 8.79883L9.54876 8.79889L9.5487 8.79883L8.7987 9.54883L14.0488 14.7989L8.79883 20.0488L9.54883 20.7988Z" fill="#6F6EFF"/>
</svg>
