<svg xmlns="http://www.w3.org/2000/svg" width="34.041" height="30.396" viewBox="0 0 34.041 30.396">
  <g id="Group_51" data-name="Group 51" transform="translate(-361.103 -1057.595)">
    <path id="Path_22" data-name="Path 22" d="M373.52,1065.4a1.938,1.938,0,0,1-1.277-.48c-1.335-1.167-2.622-2.264-3.757-3.231l-.006-.005a69.893,69.893,0,0,1-8.2-7.7,12.3,12.3,0,0,1-3.277-8.05,10.327,10.327,0,0,1,2.621-7.053A8.885,8.885,0,0,1,366.23,1036a8.31,8.31,0,0,1,5.191,1.792,10.623,10.623,0,0,1,2.1,2.192,10.611,10.611,0,0,1,2.1-2.192,8.311,8.311,0,0,1,5.192-1.792,8.885,8.885,0,0,1,6.609,2.877,10.327,10.327,0,0,1,2.621,7.053,12.3,12.3,0,0,1-3.277,8.05,69.858,69.858,0,0,1-8.2,7.7c-1.137.969-2.426,2.068-3.764,3.237a1.939,1.939,0,0,1-1.277.479Zm-7.29-27.46a6.97,6.97,0,0,0-5.186,2.253,8.4,8.4,0,0,0-2.109,5.741c0,2.35.873,4.452,2.832,6.815a68.734,68.734,0,0,0,7.968,7.462l.006.005c1.14.972,2.432,2.072,3.776,3.248,1.353-1.178,2.646-2.281,3.788-3.253a68.793,68.793,0,0,0,7.968-7.461c1.958-2.363,2.831-4.465,2.831-6.815a8.4,8.4,0,0,0-2.109-5.741,6.97,6.97,0,0,0-5.186-2.253,6.419,6.419,0,0,0-4.008,1.387,9.391,9.391,0,0,0-2.233,2.584,1.222,1.222,0,0,1-2.1,0,9.38,9.38,0,0,0-2.233-2.584,6.417,6.417,0,0,0-4.007-1.387Zm0,0" transform="translate(4.603 22.095)" fill="#14141c" stroke="#14141c" stroke-linejoin="round" stroke-width="1"/>
  </g>
</svg>
