<svg width="28" height="28" viewBox="0 0 28 28" fill="none" xmlns="http://www.w3.org/2000/svg">
<path d="M13.9963 10.9695C12.3562 10.9695 11.0293 12.2964 11.0293 13.9365C11.0293 15.5765 12.3562 16.9035 13.9963 16.9035C15.6363 16.9035 16.9633 15.5765 16.9633 13.9365C16.9633 12.2964 15.6363 10.9695 13.9963 10.9695Z" fill="#6F6EFF"/>
<path d="M14 0C6.26944 0 0 6.26944 0 14C0 21.7306 6.26944 28 14 28C21.7306 28 28 21.7306 28 14C28 6.26571 21.7306 0 14 0ZM22.2263 18.5884C22.2263 20.713 20.4894 22.4537 18.361 22.4537H9.63525C7.51065 22.4537 5.76997 20.7167 5.76997 18.5884V9.41161C5.76997 7.28701 7.50692 5.54633 9.63525 5.54633H18.361C20.4856 5.54633 22.2263 7.28328 22.2263 9.41161V18.5884Z" fill="#6F6EFF"/>
<path d="M17.4404 6.80989H10.5597C9.62408 6.80989 8.7407 7.17889 8.0735 7.84609C7.4063 8.51329 7.03729 9.39668 7.03729 10.3323V17.664C7.03729 18.5996 7.4063 19.4829 8.0735 20.1501C8.7407 20.8173 9.62408 21.1864 10.5597 21.1864H17.4404C18.3759 21.1864 19.2593 20.8173 19.9265 20.1501C20.5937 19.4829 20.9627 18.5996 20.9627 17.664V10.3323C20.9627 9.39668 20.5937 8.51329 19.9265 7.84609C19.2593 7.17889 18.3759 6.80989 17.4404 6.80989ZM14.0261 18.4654C11.525 18.4654 9.49363 16.4377 9.49363 13.9329C9.49363 11.4318 11.5213 9.40041 14.0261 9.40041C16.5309 9.40041 18.5586 11.4281 18.5586 13.9329C18.5549 16.4377 16.5272 18.4654 14.0261 18.4654ZM18.6294 10.4068C18.0368 10.4068 17.5559 9.92597 17.5559 9.33332C17.5559 8.74067 18.0368 8.25984 18.6294 8.25984C19.2221 8.25984 19.7029 8.74067 19.7029 9.33332C19.7029 9.92597 19.2221 10.4068 18.6294 10.4068Z" fill="#6F6EFF"/>
</svg>
