<svg xmlns="http://www.w3.org/2000/svg" width="44.698" height="44.698" viewBox="0 0 44.698 44.698">
  <g id="Logo" transform="translate(0 0)">
    <g id="Group_16" data-name="Group 16" transform="translate(14.816 23.513)">
      <path id="Path_10" data-name="Path 10" d="M3372.536,2587.487l-1.956-3.456v-6.4a.78.78,0,0,0-.78-.78h-10.375a.78.78,0,0,0-.78.78v6.4l-1.956,3.456c-.212.375-.035.679.4.679h15.054C3372.571,2588.166,3372.748,2587.862,3372.536,2587.487Zm-1.265-.1h-4.321l-.427-.889a.54.54,0,0,0-.447-.281h-2.808a.542.542,0,0,0-.447.281l-.427.889h-4.438c-.172,0-.243-.122-.158-.271l1.149-2.031a.592.592,0,0,1,.466-.271h10.4a.591.591,0,0,1,.466.271l1.15,2.031C3371.513,2587.264,3371.443,2587.385,3371.271,2587.385Z" transform="translate(-3356.601 -2576.856)" fill="#6f6eff"/>
    </g>
    <path id="Path_11" data-name="Path 11" d="M3078.5,2157.849a22.349,22.349,0,0,0,44.7,0c0-6.332-2.157-15.237-10.84-19.286l-.987,32.352h0a.716.716,0,0,1,0,.072c0,1.508-5.759,2.731-12.862,2.731s-12.863-1.223-12.863-2.731a.717.717,0,0,1,0-.072h0l.006-.01a.974.974,0,0,1,.375-.58l21.787-33.719a22.366,22.366,0,0,0-29.312,21.243Z" transform="translate(-3078.499 -2135.5)" fill="#6f6eff"/>
  </g>
</svg>
