<svg width="114" height="40" viewBox="0 0 114 40" fill="none" xmlns="http://www.w3.org/2000/svg">
<path fill-rule="evenodd" clip-rule="evenodd" d="M107.024 15.6857C107.024 14.4663 107.987 13.4721 109.142 13.4721C110.328 13.4721 111.258 14.4663 111.258 15.6857C111.258 16.9044 110.328 17.8987 109.142 17.8987C107.987 17.9306 107.024 16.9363 107.024 15.6857ZM109.142 17.4172C110.04 17.4172 110.746 16.6474 110.746 15.7176C110.746 14.7871 110.008 14.0174 109.142 14.0174C108.243 14.0174 107.537 14.7871 107.537 15.7176C107.537 16.6474 108.243 17.4172 109.142 17.4172ZM108.853 16.6799H108.404V14.7233H109.205C109.366 14.7233 109.559 14.7233 109.687 14.8196C109.847 14.9159 109.911 15.1079 109.911 15.3005C109.911 15.525 109.783 15.7176 109.591 15.7814L109.943 16.6474H109.463L109.174 15.8777H108.853V16.6799ZM108.853 15.5894H109.11C109.206 15.5894 109.302 15.5894 109.366 15.5575C109.43 15.525 109.463 15.4287 109.463 15.3324C109.463 15.2686 109.43 15.1723 109.366 15.1404C109.302 15.1079 109.174 15.1079 109.11 15.1079H108.885L108.853 15.5894Z" fill="#FD0C15"/>
<path fill-rule="evenodd" clip-rule="evenodd" d="M76.7124 0.898813L76.1346 4.68385C74.884 4.01038 73.9536 3.75339 72.9593 3.75339C70.3292 3.75339 68.4689 6.44784 68.4689 10.2654C68.4689 12.8954 69.7196 14.4994 71.7725 14.4994C72.6385 14.4994 73.6009 14.2105 74.7877 13.6008L74.178 17.5784C72.863 17.9636 72.0288 18.0918 71.0346 18.0918C67.2177 18.0918 64.844 15.2047 64.844 10.5855C64.844 4.36305 68.1156 0.000261495 72.8311 0.000261495C73.4402 0.000261495 73.9861 0.0646739 74.435 0.192862L75.9102 0.578034C76.2953 0.738113 76.3916 0.770623 76.7124 0.898813Z" fill="#FD0C15"/>
<path fill-rule="evenodd" clip-rule="evenodd" d="M64.9404 3.49649C64.8441 3.4646 64.7159 3.46459 64.5877 3.46459C63.4328 3.46459 62.7593 4.07365 61.6687 5.77388L61.9889 3.62467H58.7817L56.6006 17.7705H60.1611C61.4443 9.10993 61.7644 7.63418 63.4646 7.63418C63.5609 7.63418 63.5928 7.63418 63.721 7.63418C64.0418 5.93458 64.4589 4.68332 65.0686 3.52837L64.9404 3.49649Z" fill="#FD0C15"/>
<path fill-rule="evenodd" clip-rule="evenodd" d="M43.7379 17.5777C42.7755 17.8985 42.0057 18.0586 41.2035 18.0586C39.4076 18.0586 38.4133 16.968 38.4133 14.9477C38.4133 14.5625 38.4452 14.1135 38.5096 13.6645L38.7335 12.2851L38.8942 11.1627L40.4337 1.50719H43.9624L43.5453 3.59262H45.3737L44.8603 7.02494L43.0638 7.02433L42.1339 12.9266C42.102 13.183 42.0695 13.3756 42.0695 13.5038C42.0695 14.2417 42.4547 14.5625 43.2889 14.5625C43.7053 14.5625 43.9942 14.5306 44.2506 14.4343L43.7379 17.5777Z" fill="#FD0C15"/>
<path fill-rule="evenodd" clip-rule="evenodd" d="M29.752 8.0833C29.752 9.87982 30.5862 11.0985 32.4465 12.029C33.8579 12.7344 34.1149 12.9588 34.1149 13.6004C34.1149 14.4665 33.4733 14.8836 32.0938 14.8836C31.0352 14.8836 30.0728 14.7235 28.9185 14.3064L28.437 17.578L28.5977 17.6106L29.2393 17.7387C29.4638 17.7706 29.752 17.8344 30.1691 17.8669C31.0033 17.9307 31.6768 17.9951 32.1257 17.9951C35.847 17.9951 37.5791 16.4875 37.5791 13.2796C37.5791 11.3549 36.8731 10.2006 35.0772 9.33454C33.6015 8.62856 33.4414 8.46847 33.4414 7.79501C33.4414 7.02462 34.0186 6.64007 35.1729 6.64007C35.8789 6.64007 36.8093 6.73636 37.7073 6.86455L38.2207 3.59293C37.2902 3.43222 35.9114 3.30402 35.1091 3.30402C31.0996 3.30402 29.7202 5.45324 29.752 8.0833Z" fill="#FD0C15"/>
<path fill-rule="evenodd" clip-rule="evenodd" d="M104.972 17.7387H101.604L101.764 16.3593C100.802 17.4498 99.7754 17.9307 98.4922 17.9307C95.8941 17.9307 94.1938 15.5895 94.1938 12.0609C94.1938 7.34538 96.8245 3.36837 99.968 3.36837C101.347 3.36837 102.374 3.97743 103.368 5.29246L104.138 0.320615H107.634L104.972 17.7387ZM99.7435 14.4345C101.411 14.4345 102.566 12.4779 102.566 9.65527C102.566 7.85875 101.893 6.86451 100.673 6.86451C99.0694 6.86451 97.9151 8.85364 97.9151 11.6119C97.9151 13.4722 98.5241 14.4345 99.7435 14.4345Z" fill="#FD0C15"/>
<path fill-rule="evenodd" clip-rule="evenodd" d="M54.9641 17.4502C53.7453 17.8347 52.591 18.0273 51.3079 18.0273C47.3621 18.0273 45.2773 15.8462 45.2773 11.6767C45.2773 6.80048 47.9074 3.24058 51.4679 3.24058C54.3869 3.24058 56.2478 5.26097 56.2478 8.40441C56.2478 9.43118 56.119 10.4573 55.7982 11.9012H48.7416C48.7097 12.1256 48.7097 12.2219 48.7097 12.3501C48.7097 14.0178 49.7683 14.852 51.8212 14.852C53.0719 14.852 54.2268 14.5631 55.51 13.9541L54.9641 17.4502ZM52.9756 9.01409C53.0081 8.7252 53.0081 8.46882 53.0081 8.30811C53.0081 7.15316 52.3984 6.48032 51.3397 6.48032C50.2173 6.48032 49.415 7.37828 49.0943 9.01409H52.9756Z" fill="#FD0C15"/>
<path fill-rule="evenodd" clip-rule="evenodd" d="M15.5108 17.7393H11.9821L14.0031 4.3632L9.44836 17.7393H7.04216L6.75389 4.4595L4.6047 17.7393H1.30054L4.05941 0.353688H9.15946L9.28766 11.131L12.7519 0.353688H18.269L15.5108 17.7393Z" fill="#FD0C15"/>
<path fill-rule="evenodd" clip-rule="evenodd" d="M24.652 11.4509C24.2674 11.419 24.1067 11.3871 23.8503 11.3871C21.8293 11.3871 20.8351 12.125 20.8351 13.5363C20.8351 14.4024 21.3485 14.9795 22.1182 14.9795C23.5295 14.9795 24.5882 13.5363 24.652 11.4509ZM27.2183 17.7384H24.2674L24.3312 16.2627C23.4333 17.4495 22.2464 17.9629 20.6106 17.9629C18.6859 17.9629 17.3708 16.3909 17.3708 14.1135C17.3708 10.6492 19.6801 8.66074 23.594 8.66074C24.0104 8.66074 24.5238 8.69263 25.0372 8.75704C25.1335 8.27555 25.1654 8.08296 25.1654 7.82658C25.1654 6.89612 24.5563 6.54344 22.888 6.54344C21.8937 6.54344 20.7388 6.70351 19.9365 6.96052L19.4881 7.1206L19.1674 7.2169L19.6482 4.04155C21.4122 3.49627 22.5991 3.27181 23.8822 3.27181C26.9294 3.27181 28.5333 4.71503 28.5333 7.4095C28.5333 8.11548 28.4689 8.62884 28.2444 10.2321L27.5391 15.2684L27.4109 16.1664L27.3146 16.8717L27.2508 17.3851L27.2183 17.7384Z" fill="#FD0C15"/>
<path fill-rule="evenodd" clip-rule="evenodd" d="M82.8388 11.4509C82.4861 11.419 82.2941 11.3871 82.0371 11.3871C80.0161 11.3871 78.99 12.125 78.99 13.5363C78.99 14.4024 79.5033 14.9795 80.2731 14.9795C81.7163 14.9795 82.775 13.5363 82.8388 11.4509ZM85.405 17.7384H82.4542L82.5186 16.2627C81.62 17.4495 80.4332 17.9629 78.7974 17.9629C76.8727 17.9629 75.5576 16.3909 75.5576 14.1135C75.5576 10.6492 77.8675 8.66074 81.7801 8.66074C82.1653 8.66074 82.7106 8.69263 83.2239 8.75704C83.3202 8.27555 83.3521 8.08296 83.3521 7.82658C83.3521 6.89611 82.7431 6.54344 81.0747 6.54344C80.0805 6.54344 78.9256 6.70351 78.1239 6.96052L77.6105 7.08869L77.2897 7.18499L77.7712 4.00967C79.5352 3.4644 80.7221 3.23991 82.0052 3.23991C85.0524 3.23991 86.6563 4.68312 86.6563 7.37759C86.6563 8.08295 86.5919 8.59634 86.3674 10.2003L85.6295 15.204L85.5332 16.1026L85.4376 16.8079L85.3731 17.2894L85.405 17.7384Z" fill="#FD0C15"/>
<path fill-rule="evenodd" clip-rule="evenodd" d="M95.3169 3.49649C95.2206 3.4646 95.0924 3.46459 94.9642 3.46459C93.8092 3.46459 93.1351 4.07365 92.0446 5.77388L92.366 3.62467H89.1581L86.9771 17.7705H90.5376C91.8201 9.10993 92.1409 7.63418 93.8411 7.63418C93.9374 7.63418 93.9374 7.63418 94.0981 7.63418C94.4183 5.93458 94.8679 4.68332 95.445 3.52837L95.3169 3.49649Z" fill="#FD0C15"/>
<path fill-rule="evenodd" clip-rule="evenodd" d="M80.4333 31.4995C80.4333 34.7073 79.439 36.5995 77.8676 36.5995C76.7126 36.6314 76.0386 35.3483 76.0386 33.4561C76.0386 31.2106 77.0653 28.6449 78.6692 28.6449C79.9843 28.6449 80.4333 30.0237 80.4333 31.4995ZM83.93 31.5314C83.93 27.9708 82.1654 25.1801 78.8618 25.1801C75.0443 25.1801 72.575 28.5486 72.575 33.5199C72.575 37.081 74.0501 40 77.6425 40C81.2674 40 83.93 37.4337 83.93 31.5314Z" fill="#F3AE12"/>
<path fill-rule="evenodd" clip-rule="evenodd" d="M73.6972 22.7104L73.1519 26.4954C71.9651 25.8225 71.1309 25.5655 70.2011 25.5655C67.7311 25.5655 65.999 28.26 65.999 32.0769C65.999 34.707 67.1533 36.3109 69.078 36.3109C69.9122 36.3109 70.8101 36.0226 71.9007 35.4129L71.3235 39.3906C70.1048 39.7758 69.3025 39.9033 68.3727 39.9033C64.8121 39.9033 62.5667 37.0169 62.5667 32.3977C62.5667 26.1752 65.6457 21.8124 70.0404 21.8124C70.6176 21.8124 71.099 21.8768 71.5161 22.005L72.863 22.3896C73.312 22.5184 73.4083 22.5503 73.6972 22.7104Z" fill="#F3AE12"/>
<path fill-rule="evenodd" clip-rule="evenodd" d="M51.7887 25.2758C51.6925 25.2439 51.5643 25.2439 51.4361 25.2439C50.3455 25.2439 49.7358 25.8536 48.7097 27.5532L49.0305 25.404H46.0471L44.0261 39.5498H47.3303C48.5171 30.8892 48.8379 29.4135 50.4099 29.4135C50.5056 29.4135 50.5056 29.4135 50.6663 29.446C50.9546 27.7458 51.3723 26.4945 51.9169 25.3402L51.7887 25.2758Z" fill="#F3AE12"/>
<path fill-rule="evenodd" clip-rule="evenodd" d="M95.028 39.4226H91.8845L92.0446 38.0432C91.1466 39.1338 90.1843 39.6152 88.9656 39.6152C86.5593 39.6152 84.9561 37.2734 84.9561 33.7454C84.9561 29.0299 87.426 25.0523 90.345 25.0523C91.6281 25.0523 92.6224 25.662 93.5203 27.0089L94.2582 22.0371H97.5298L95.028 39.4226ZM90.1205 36.0866C91.6919 36.0866 92.7506 34.13 92.7506 31.3073C92.7506 29.5108 92.1409 28.5491 90.9866 28.5491C89.4789 28.5491 88.4203 30.5057 88.4203 33.2958C88.4203 35.1561 88.9974 36.0866 90.1205 36.0866Z" fill="#F3AE12"/>
<path fill-rule="evenodd" clip-rule="evenodd" d="M20.7388 39.3578C19.6164 39.743 18.5259 39.9355 17.339 39.9355C13.6503 39.9355 11.7256 37.7545 11.7256 33.5842C11.7256 28.7412 14.1956 25.1482 17.4991 25.1482C20.2261 25.1482 21.9582 27.1366 21.9582 30.3126C21.9582 31.3394 21.8294 32.3655 21.5405 33.8087H14.9653C14.9334 34.0332 14.9334 34.1295 14.9334 34.2577C14.9334 35.8941 15.9277 36.7277 17.8518 36.7277C19.0386 36.7277 20.0973 36.4388 21.2841 35.8297L20.7388 39.3578ZM18.8785 30.9217C18.8785 30.6334 18.9104 30.377 18.9104 30.2163C18.9104 29.0613 18.3333 28.3879 17.339 28.3879C16.2804 28.3879 15.5425 29.2858 15.2217 30.9217H18.8785Z" fill="#F3AE12"/>
<path fill-rule="evenodd" clip-rule="evenodd" d="M60.1285 39.3578C59.0061 39.743 57.9156 39.9355 56.7287 39.9355C53.0081 39.9355 51.0828 37.7545 51.0828 33.5842C51.0828 28.7412 53.5528 25.1482 56.8569 25.1482C59.5833 25.1482 61.3479 27.1366 61.3479 30.3126C61.3479 31.3394 61.2197 32.3655 60.9308 33.8087H54.355C54.3225 34.0332 54.3225 34.1295 54.3225 34.2577C54.3225 35.8941 55.3174 36.7277 57.2421 36.7277C58.4289 36.7277 59.4876 36.4388 60.6738 35.8297L60.1285 39.3578ZM58.2682 30.9217C58.3001 30.6334 58.3001 30.377 58.3001 30.2163C58.3001 29.0613 57.723 28.3879 56.7287 28.3879C55.6701 28.3879 54.9322 29.2858 54.6114 30.9217H58.2682Z" fill="#F3AE12"/>
<path fill-rule="evenodd" clip-rule="evenodd" d="M106.319 39.3578C105.164 39.743 104.074 39.9355 102.919 39.9355C99.23 39.9355 97.2734 37.7545 97.2734 33.5842C97.2734 28.7412 99.7434 25.1482 103.079 25.1482C105.806 25.1482 107.537 27.1366 107.537 30.3126C107.537 31.3394 107.41 32.3655 107.121 33.8087H100.545C100.513 34.0332 100.513 34.1295 100.513 34.2577C100.513 35.8941 101.507 36.7277 103.432 36.7277C104.619 36.7277 105.678 36.4388 106.864 35.8297L106.319 39.3578ZM104.458 30.9217C104.458 30.6334 104.49 30.377 104.49 30.2163C104.49 29.0613 103.913 28.3879 102.919 28.3879C101.86 28.3879 101.123 29.2858 100.802 30.9217H104.458Z" fill="#F3AE12"/>
<path fill-rule="evenodd" clip-rule="evenodd" d="M10.9233 25.9182C10.2818 25.4693 9.38384 25.1166 8.1651 25.1166C6.81755 25.1166 5.7589 25.4049 5.7589 26.8162C5.7589 29.3187 10.6351 28.3882 10.6351 33.7772C10.6351 38.6846 7.42723 39.9678 4.50827 39.9678C3.22513 39.9678 1.7175 39.5507 0.626953 39.0379L1.42861 35.4449C2.1027 36.0546 3.41773 36.4716 4.54016 36.4716C5.59882 36.4716 7.20274 36.1828 7.20274 34.3543C7.20274 31.4998 2.32717 32.5578 2.32717 27.5541C2.32717 22.9674 5.18173 21.6198 7.94061 21.6198C9.48013 21.6198 10.9559 21.845 11.7894 22.4221L10.9233 25.9182Z" fill="#F3AE12"/>
<path fill-rule="evenodd" clip-rule="evenodd" d="M30.4262 39.3584C29.7521 39.6792 28.8223 39.9043 27.4747 39.9043C24.5883 39.9043 22.7917 37.0172 22.7917 33.4886C22.7917 28.87 25.3899 25.2132 29.2068 25.2132C30.041 25.2132 31.3241 25.5659 32.3184 26.143L31.5811 29.511C30.8752 29.0301 30.1373 28.7418 29.3675 28.7418C27.6035 28.7418 26.3204 30.3777 26.3204 33.2641C26.3204 34.9324 27.2509 36.3113 28.6941 36.3113C29.5601 36.3113 30.1692 36.1193 30.9071 35.7022L30.4262 39.3584Z" fill="#F3AE12"/>
<path fill-rule="evenodd" clip-rule="evenodd" d="M42.8074 35.7971C42.6473 37.0165 42.4866 38.2034 42.3903 39.454H39.215L39.4713 37.1772H39.4395C38.4452 38.7167 37.4191 39.7754 35.59 39.7754C33.6015 39.7754 32.511 37.6581 32.511 34.9317C32.511 33.9694 32.5748 33.456 32.7674 31.9802L33.666 25.437H37.2265L36.2641 32.0128C36.1678 32.7181 36.0396 33.4241 36.0396 34.1613C36.0396 34.9955 36.4242 35.8297 37.3866 35.7653C38.8304 35.7653 39.6958 34.0013 39.9528 31.9165L40.9471 25.437H44.3794L42.8074 35.7971Z" fill="#F3AE12"/>
<path fill-rule="evenodd" clip-rule="evenodd" d="M109.623 39.2939H109.077V36.9522H108.308V36.4388H110.392V36.9522H109.623V39.2939Z" fill="#F3AE12"/>
<path fill-rule="evenodd" clip-rule="evenodd" d="M113.183 39.2939H112.67V36.9203L112.189 39.2939H111.676L111.195 36.9203V39.2939H110.681V36.4388H111.483L111.933 38.6843H111.965L112.414 36.4388H113.183V39.2939Z" fill="#F3AE12"/>
</svg>
