<svg width="105" height="43" viewBox="0 0 105 43" fill="none" xmlns="http://www.w3.org/2000/svg">
<path d="M40.8097 11.582H35.5855C35.4434 11.5857 35.3025 11.5547 35.1754 11.4918C35.0483 11.429 34.9388 11.3361 34.8565 11.2215C33.196 9.02838 30.9958 7.29189 28.4652 6.17716C25.9346 5.06242 23.1579 4.60652 20.3989 4.8528C16.7768 5.15595 13.3547 6.62415 10.656 9.03288C7.95737 11.4416 6.13062 14.6583 5.4552 18.191C5.05697 20.3421 5.10266 22.5507 5.58942 24.6839C6.07618 26.8172 6.99397 28.8311 8.28771 30.6045C9.58145 32.378 11.2244 33.8744 13.1178 35.0039C15.0111 36.1333 17.1159 36.8725 19.3054 37.1769C22.356 37.6692 25.4855 37.2723 28.3118 36.0347C31.1381 34.797 33.5389 32.7722 35.221 30.2074C35.3603 29.9819 35.5572 29.7967 35.7917 29.6701C36.0263 29.5436 36.2903 29.4802 36.5574 29.4864H98.3972C98.9855 29.5323 99.5571 29.701 100.075 29.9813C100.592 30.2617 101.044 30.6473 101.4 31.1128C101.755 31.5783 102.008 32.1131 102.139 32.682C102.271 33.2508 102.279 33.8409 102.164 34.4131C102.164 34.6535 102.042 34.6535 101.799 34.6535H38.7443C38.4874 34.6243 38.2273 34.6647 37.9918 34.7706C37.7564 34.8764 37.5546 35.0436 37.4079 35.2543C35.3857 37.5043 32.8934 39.2929 30.1034 40.4963C27.3134 41.6997 24.2923 42.2891 21.2493 42.2238C17.4877 42.1749 13.806 41.1436 10.577 39.2345C7.3481 37.3254 4.68661 34.6062 2.86213 31.3523C1.03765 28.0984 0.114971 24.4254 0.18757 20.7054C0.260169 16.9853 1.32546 13.3503 3.27554 10.1685C5.22562 6.98664 7.99123 4.37104 11.2923 2.58657C14.5933 0.802103 18.3125 -0.0878536 22.0732 0.00684006C25.8339 0.101534 29.5025 1.17751 32.7074 3.1258C35.9124 5.07409 38.5398 7.82549 40.3237 11.1013C40.6881 11.2215 40.6882 11.3417 40.8097 11.582Z" fill="#00A9E4"/>
<path d="M13.8382 19.1518C13.5952 19.3921 13.7168 19.6325 13.7168 19.8728V26.9625C13.7168 27.4432 13.5952 27.6835 12.9878 27.6835H9.58598C9.2215 27.6835 8.97852 27.5633 8.97852 27.0827V13.7444C8.97852 13.3839 9.10001 13.1436 9.58598 13.1436H13.7168C14.3097 13.1602 14.8806 13.3692 15.3416 13.7383C15.8026 14.1074 16.1282 14.6162 16.2681 15.1864C16.8755 17.109 17.3615 19.0316 17.969 20.9543C18.0905 21.1946 17.969 21.5551 18.3335 21.5551C18.698 21.5551 18.5764 21.1946 18.6979 20.9543C19.3054 19.0316 19.7914 17.2292 20.3989 15.3065C20.5167 14.6473 20.8834 14.0571 21.4249 13.6555C21.9663 13.2538 22.6419 13.0708 23.3147 13.1436H27.081C27.5669 13.1436 27.6884 13.1436 27.6884 13.7444V27.0827C27.6884 27.5633 27.5669 27.6835 27.081 27.6835H23.6791C23.1931 27.6835 22.9502 27.5633 22.9502 26.9625V19.7526C22.9502 19.5123 23.0717 19.272 22.8287 19.1518C22.4642 19.0316 22.5857 19.5123 22.4642 19.6325C21.7352 22.0358 20.8848 24.5592 20.1559 26.9625C20.0344 27.4432 19.7913 27.5633 19.4269 27.5633H17.24C16.754 27.5633 16.511 27.4432 16.3895 26.9625C15.6606 24.5592 14.9317 22.0358 14.0812 19.6325C14.0937 19.5375 14.0773 19.441 14.034 19.3554C13.9907 19.2698 13.9225 19.1989 13.8382 19.1518Z" fill="#22B351"/>
<path d="M50.6509 27.5635H45.9127C45.753 27.5842 45.5911 27.5469 45.457 27.4585C45.323 27.3701 45.2259 27.2367 45.1837 27.0829C44.5762 25.8812 43.9688 24.7998 43.3613 23.7183C43.2811 23.4732 43.1139 23.2651 42.8905 23.1326C42.6672 23 42.4028 22.952 42.1464 22.9973C40.81 22.9973 40.81 22.9973 40.81 24.3191V27.0829C40.81 27.5635 40.6885 27.6837 40.2025 27.6837H36.6792C36.3148 27.6837 36.0718 27.5635 36.0718 27.0829V20.2336C36.0718 19.8731 36.1933 19.7529 36.5578 19.7529H49.8004C50.2864 19.7529 50.2864 19.9933 50.0434 20.2336C49.8487 20.7234 49.5541 21.1682 49.1778 21.5404C48.8016 21.9125 48.3518 22.204 47.8566 22.3965C47.2491 22.6368 47.3706 22.8772 47.6136 23.3578C48.464 24.5595 49.3145 25.7611 50.0434 26.9627C50.4079 27.203 50.6509 27.3232 50.6509 27.5635Z" fill="#22B351"/>
<path d="M40.9309 13.1456H45.7906C46.4564 13.1578 47.1128 13.3026 47.7208 13.5712C48.3287 13.8398 48.8758 14.2267 49.3293 14.7089C49.7828 15.1911 50.1335 15.7587 50.3605 16.3779C50.5874 16.997 50.686 17.655 50.6503 18.3126C50.6503 18.9135 50.4073 19.1538 49.7999 19.0336C47.127 18.9135 44.3328 19.1538 41.6599 18.9135C40.21 18.7488 38.8436 18.1565 37.7386 17.2136C36.6336 16.2707 35.8409 15.0207 35.4637 13.6262C35.3422 13.1456 35.4638 13.0254 35.9497 13.0254C37.6506 13.1456 39.3515 13.1456 40.9309 13.1456Z" fill="#00A9E4"/>
<path d="M29.5107 20.3533V13.8645C29.5107 13.3839 29.6322 13.1436 30.2397 13.1436H33.6416C34.0061 13.1436 34.2491 13.1436 34.2491 13.6242V27.0825C34.2491 27.5631 34.0061 27.5631 33.6416 27.5631H30.1182C29.6322 27.5631 29.5107 27.443 29.5107 26.9623C29.5107 24.7994 29.5107 22.5163 29.5107 20.3533Z" fill="#22B351"/>
<path d="M78.7158 22.8787V19.0334C78.7158 18.5528 78.8373 18.4326 79.3232 18.4326H83.8183C84.3043 18.4326 84.3043 18.5528 84.3043 19.0334C84.3043 20.3552 84.3044 20.3552 82.968 20.3552H81.6315C81.0241 20.2351 80.9026 20.4754 80.9026 21.0762C80.9026 21.7972 81.1456 22.0375 81.753 21.9174H82.3605C83.5754 21.9174 83.9399 22.2779 83.5754 23.4795C83.4539 23.84 83.3324 23.7198 83.0894 23.7198H81.51C80.6596 23.5997 81.0241 24.2005 80.9026 24.6811C80.9026 25.1618 80.9026 25.4021 81.51 25.4021H83.9399C84.3043 25.4021 84.4258 25.5223 84.4258 25.8828C84.5473 27.3248 84.5473 27.3248 83.0894 27.3248H79.3232C78.8373 27.3248 78.5942 27.2046 78.5942 26.6038C78.7157 25.4021 78.7158 24.0803 78.7158 22.8787Z" fill="#00A9E4"/>
<path d="M56.4821 18.4326C57.2111 18.1923 57.5756 18.673 57.8186 19.3939C58.5476 21.7972 59.398 24.2005 60.2485 26.4836C60.4915 27.0844 60.3699 27.2046 59.7625 27.2046H59.5195C58.3045 27.2046 58.1831 27.2046 57.8186 26.0029C57.6971 25.5223 57.4541 25.4021 57.0896 25.4021H56.4821C55.0242 25.4021 55.0242 25.4021 54.5383 26.7239C54.4168 27.0844 54.2953 27.2046 53.9308 27.2046C52.1084 27.2046 52.1084 27.3247 52.7159 25.6424C53.4448 23.5997 54.1738 21.5569 54.7813 19.5141C55.1457 18.4326 55.1457 18.4326 56.4821 18.4326Z" fill="#00A9E4"/>
<path d="M60.6127 22.5182C60.5795 21.7251 60.7952 20.9414 61.2302 20.2744C61.6653 19.6075 62.2983 19.09 63.0425 18.793C63.8674 18.3661 64.7995 18.1843 65.7265 18.2695C66.6534 18.3548 67.5357 18.7036 68.2667 19.2737C68.6312 19.514 68.6313 19.6342 68.3883 19.9947C68.3222 20.0595 68.2795 20.1439 68.2667 20.235C67.6593 21.1963 67.6593 21.1963 66.6873 20.7157C66.2081 20.4453 65.6532 20.3358 65.1058 20.4037C64.5584 20.4716 64.0479 20.7132 63.651 21.0922C63.2541 21.4712 62.9921 21.9673 62.9043 22.506C62.8165 23.0448 62.9076 23.5972 63.164 24.0803C63.7715 25.6425 65.5939 26.003 67.1734 24.9215C67.6593 24.561 67.9023 24.561 68.2667 25.0417C68.9957 26.1232 68.9958 26.1232 67.7808 26.8442C67.0371 27.2714 66.1905 27.492 65.3305 27.4827C64.4705 27.4735 63.6289 27.2347 62.8948 26.7916C62.1606 26.3486 61.561 25.7176 61.1593 24.9654C60.7577 24.2132 60.5688 23.3677 60.6127 22.5182Z" fill="#00A9E4"/>
<path d="M74.0986 18.3114C75.0965 18.293 76.0747 18.5874 76.893 19.1525C77.2575 19.3928 77.3789 19.6331 77.0145 19.9936C76.893 20.1138 76.7715 20.2339 76.7715 20.3541C76.5285 21.0751 76.164 21.1952 75.4351 20.7146C74.9607 20.4089 74.4021 20.2563 73.8363 20.2778C73.2706 20.2993 72.7255 20.4939 72.2762 20.8347C71.8836 21.2185 71.6161 21.7095 71.5078 22.2448C71.3996 22.7801 71.4556 23.3352 71.6688 23.8388C71.819 24.2093 72.0566 24.5389 72.3618 24.8002C72.6669 25.0615 73.0307 25.2469 73.423 25.3409C73.8153 25.435 74.2246 25.435 74.6169 25.3409C75.0091 25.2468 75.3729 25.0614 75.6781 24.8001C76.2855 24.4396 76.5285 24.4396 76.893 25.0404C77.5005 26.1218 77.5004 26.1218 76.5285 26.7227C75.4474 27.3617 74.1647 27.5803 72.9297 27.336C71.6948 27.0917 70.5958 26.402 69.8464 25.4009C69.2006 24.3724 68.9793 23.1379 69.228 21.9525C69.4767 20.7671 70.1766 19.7217 71.1828 19.0323C72.0891 18.5822 73.0848 18.336 74.0986 18.3114Z" fill="#00A9E4"/>
<path d="M100.098 18.1915H103.743C104.108 18.1915 104.229 18.3117 104.229 18.6722C104.229 20.2344 104.35 20.2344 102.65 20.2344C101.192 20.2344 101.192 20.2344 101.192 21.6764V27.3242C101.192 27.8049 101.07 27.9251 100.584 27.9251C98.7619 27.9251 98.7619 27.9251 98.7619 26.1226V20.715C98.7619 20.2344 98.6404 20.1142 98.1544 20.1142H96.2105C95.8461 20.1142 95.7246 19.994 95.7246 19.6335V19.5133C95.7246 17.9512 95.7245 17.9512 97.1825 17.9512C98.1419 18.1409 99.1203 18.2216 100.098 18.1915Z" fill="#00A9E4"/>
<path d="M85.1543 18.4333C87.5842 18.4333 90.014 18.3131 92.3224 18.4333C93.0874 18.541 93.7888 18.9145 94.3008 19.487C94.8128 20.0594 95.102 20.7934 95.1168 21.5575C95.1168 22.0381 94.9953 22.2784 94.3878 22.2784C92.5654 22.1583 90.743 22.3986 88.9206 22.1583C87.9743 22.0131 87.0994 21.5739 86.4223 20.9042C85.7452 20.2346 85.3011 19.3692 85.1543 18.4333Z" fill="#22B351"/>
<path d="M90.4999 22.6365H94.3877C94.5092 22.6365 94.8737 22.5163 94.8737 22.7566C94.9952 22.997 94.7522 23.1171 94.6307 23.3575C94.3572 23.7493 93.9953 24.0727 93.5735 24.3021C93.1518 24.5316 92.6818 24.6607 92.2008 24.6792H88.556C88.0701 24.6792 87.9486 24.7994 87.9486 25.28V26.3615C87.9486 27.443 87.9485 27.443 86.8551 27.443C85.7617 27.443 85.7617 27.443 85.7617 26.3615V23.5978C85.7617 22.997 85.8832 22.7566 86.4906 22.7566C88.07 22.6365 89.285 22.6365 90.4999 22.6365Z" fill="#00A9E4"/>
</svg>
