<svg width="81" height="34" viewBox="0 0 81 34" fill="none" xmlns="http://www.w3.org/2000/svg">
<path d="M10.1836 30.0113L17.1186 33.9998V29.9331C22.8329 28.369 27.0313 23.1683 27.0313 16.9998C27.0313 11.6769 23.9108 7.07744 19.3876 4.90723L18.039 8.59268C21.061 10.1959 23.1135 13.3583 23.1135 16.9998C23.1135 20.9932 20.6377 24.4147 17.1235 25.8322V11.0904L10.1836 30.0113Z" fill="#AACC67"/>
<path d="M32.4304 22.1372H37.3622V23.0317H33.7249V25.2703H35.4968C36.3581 25.2703 37.0127 25.4707 37.4606 25.8813C37.9085 26.2919 38.13 26.8393 38.13 27.5285C38.13 28.8091 37.3573 29.9285 35.6789 29.9285H32.4304V22.1372V22.1372ZM33.7249 26.1697V29.034C33.7249 29.034 34.916 29.034 35.3442 29.034C35.9053 29.034 36.8011 28.8482 36.8011 27.5579C36.8011 26.2919 35.8856 26.1746 35.2162 26.1746H33.7249V26.1697Z" fill="#343339"/>
<path d="M44.6665 29.9334C44.5582 29.6156 44.1645 28.3399 44.0611 28.0124H41.0735L40.4681 29.9334H39.1638C39.6314 28.5403 41.3934 23.3494 41.797 22.1372H43.4311L46.0053 29.9334H44.6665V29.9334ZM42.6042 23.1246H42.5599C42.5599 23.1246 41.3787 27.0593 41.3688 27.0788H43.7855L42.6042 23.1246Z" fill="#343339"/>
<path d="M54.6381 13.5932C54.0228 13.8914 53.1861 14.126 52.4774 14.126C50.7153 14.126 49.288 12.7085 49.288 10.9587C49.288 9.2088 50.7153 7.78643 52.4774 7.78643C53.1861 7.78643 53.821 7.9624 54.4117 8.28011L55.4404 5.47936C54.2345 4.83905 53.0581 4.66309 51.7095 4.66309C48.2101 4.66309 45.3701 7.4785 45.3701 10.9587C45.3701 14.4339 48.2051 17.2542 51.7095 17.2542C53.0532 17.2542 54.5593 16.9952 55.6618 16.3989L54.6381 13.5932Z" fill="#343339"/>
<path d="M67.2678 12.8554C66.8888 11.6188 65.87 10.778 64.5558 10.5825C65.8109 10.3284 66.5147 9.33123 66.8642 8.39765C67.1841 7.53738 68.134 4.92726 68.134 4.92726H64.2359L63.2663 7.67424C62.8676 8.7789 62.5083 9.24814 61.0957 9.24814V4.9126H57.1631V17.0052H61.0957V12.2102C62.7396 12.2102 63.1383 12.347 63.5862 13.5006C63.9012 14.3853 64.8265 17.0052 64.8265 17.0052H68.7296L67.2678 12.8554Z" fill="#343339"/>
<path d="M76.2946 9.23299H74.1684V7.81551H80.2519V4.90723H70.2456V16.9998H76.6392C79.4545 16.9998 81 15.5872 81 12.9673C81 10.3816 79.4151 9.23299 76.2946 9.23299ZM75.8467 14.116H74.1634V11.9213H75.7532C76.521 11.9213 77.0772 12.0924 77.0772 12.9575C77.0821 13.8178 76.5555 14.116 75.8467 14.116Z" fill="#343339"/>
<path d="M39.892 16.9998V8.07456H36.3532V16.9998H32.4304V4.90723H43.8296V16.9998H39.892Z" fill="#343339"/>
<path d="M52.3151 22.147V25.3534H48.9387V22.147H47.6245V29.9333H48.9387V26.331H52.3151V29.9333H53.6342V22.147H52.3151Z" fill="#343339"/>
<path d="M55.8833 29.9333V22.147H57.163V25.3045H58.3541C59.2745 25.3045 59.56 24.6838 59.7175 24.1461L60.2343 22.1567H61.4697L60.943 24.327C60.8495 24.7669 60.5296 25.5147 59.8208 25.7835C60.756 25.9693 61.007 26.678 61.1596 27.2157L61.8684 29.9333H60.5887L59.9144 27.4894C59.7076 26.7562 59.4566 26.2968 58.3049 26.2968H57.1679V29.9333H55.8833Z" fill="#343339"/>
<path d="M16.8428 3.99339L9.91274 0V4.0667C4.1984 5.63571 0 10.8266 0 17C0 22.3229 3.1205 26.9224 7.64374 29.0926L8.99234 25.4071C5.97029 23.8039 3.91785 20.6415 3.91785 17C3.91785 13.0017 6.39849 9.58511 9.90782 8.16762V22.9045L16.8428 3.99339Z" fill="#343339"/>
</svg>
