<svg width="78" height="35" viewBox="0 0 78 35" fill="none" xmlns="http://www.w3.org/2000/svg">
<path d="M73.3893 21.7368H74.5925V23.5848H75.1803L76.3551 21.7368H77.6911L76.1563 24.0393V24.0583L77.8806 26.5694H76.4878L75.218 24.6078H74.5925V26.5694H73.3893V21.7368ZM71.1722 23.5561C71.1627 22.9118 70.7461 22.5328 70.2059 22.5328C69.5899 22.5328 69.1539 22.9405 69.0404 23.5561H71.1722ZM70.2344 21.6232C71.6177 21.6232 72.3757 22.637 72.3757 23.9161C72.3757 24.068 72.3567 24.2289 72.3379 24.3808H69.0119C69.0876 25.2239 69.7321 25.6598 70.4616 25.6598C70.9542 25.6598 71.4564 25.4416 71.8449 25.1288L72.3189 25.9916C71.8262 26.4271 71.0681 26.6831 70.3764 26.6831C68.7751 26.6831 67.7706 25.5269 67.7706 24.1533C67.7706 22.6658 68.7846 21.6232 70.2344 21.6232ZM62.2541 25.5556C62.8509 25.4703 63.2679 24.9681 63.2679 23.253V21.7368H66.7927V26.5694H65.5895V22.713H64.4144V23.253C64.4144 25.3564 63.8556 26.5694 62.2541 26.6168V25.5556ZM60.4816 23.5561C60.4721 22.9118 60.0551 22.5328 59.5149 22.5328C58.8991 22.5328 58.4633 22.9405 58.3496 23.5561H60.4816ZM59.5434 21.6232C60.9269 21.6232 61.6849 22.637 61.6849 23.9161C61.6849 24.068 61.6659 24.2289 61.6469 24.3808H58.3211C58.3968 25.2239 59.0413 25.6598 59.7709 25.6598C60.2636 25.6598 60.7659 25.4416 61.1542 25.1288L61.6279 25.9916C61.1352 26.4271 60.3774 26.6831 59.6854 26.6831C58.0841 26.6831 57.0798 25.5269 57.0798 24.1533C57.0798 22.6658 58.0936 21.6232 59.5434 21.6232ZM49.6398 21.7368H50.7866V25.5459H52.2931V21.7368H53.4396V25.5459H54.9462V21.7368H56.0929V26.5694H49.6398V21.7368ZM46.0216 25.6598C46.8081 25.6598 47.4618 25.0533 47.4618 24.1533C47.4618 23.2623 46.8081 22.6468 46.0216 22.6468C45.235 22.6468 44.5908 23.2623 44.5908 24.1533C44.5908 25.0533 45.235 25.6598 46.0216 25.6598ZM46.0121 21.6232C47.4903 21.6232 48.6746 22.675 48.6746 24.1533C48.6746 25.6408 47.4903 26.6831 46.0216 26.6831C44.5528 26.6831 43.3685 25.6408 43.3685 24.1533C43.3685 22.675 44.5528 21.6232 46.0121 21.6232ZM38.1553 19.8419H39.3778V22.58H40.2493L41.8316 19.8419H43.1582L41.2538 23.0448V23.0638L43.2719 26.5694H41.8886L40.2493 23.632H39.3778V26.5694H38.1553V19.8419Z" fill="#2A303B"/>
<path d="M15.5649 31.1307C6.96864 31.1307 0 24.1611 0 15.5648C0 6.96873 6.96864 -6.05186e-06 15.5649 -6.05186e-06C24.1609 -6.05186e-06 31.1299 6.96873 31.1299 15.5648C31.1299 18.4858 30.3257 21.2192 28.9261 23.5545C28.8807 23.6307 28.7653 23.6043 28.7531 23.5163C28.2192 19.6911 25.8823 17.5835 22.4809 16.9689C22.1858 16.9155 22.1308 16.7337 22.5212 16.7C23.5587 16.6102 25.0372 16.6254 25.7891 16.7611C25.8343 16.3687 25.8542 15.9691 25.8542 15.5648C25.8542 9.88232 21.2475 5.27562 15.5649 5.27562C9.88219 5.27562 5.27569 9.88232 5.27569 15.5648C5.27569 21.2474 9.88219 25.8542 15.5649 25.8542C15.727 25.8542 15.888 25.8562 16.0481 25.8487C15.8765 24.8494 15.8236 23.8336 15.8548 23.0663C15.8801 22.4385 16.0074 22.3524 16.2905 22.8408C17.7145 25.2947 19.7577 27.5298 23.7296 28.405C26.977 29.1205 30.2332 29.9669 33.7538 34.412C34.0667 34.807 33.5891 35.2021 33.2302 34.8839C29.648 31.7101 26.4112 30.687 23.4282 30.687C20.1078 30.687 17.8455 31.1307 15.5649 31.1307ZM23.4657 24.586C23.153 24.586 22.892 24.695 22.7315 24.8931C22.3206 25.4001 22.5053 26.2922 23.1349 26.8424C23.4097 27.0823 23.8056 27.226 24.1941 27.226C24.5899 27.226 24.9198 27.0774 25.1236 26.8085C25.4899 26.3172 25.2794 25.6214 24.5869 25.0359C24.2441 24.7458 23.8461 24.586 23.4657 24.586ZM26.9171 22.0389C26.6188 21.9261 26.382 22.0161 26.2692 22.2226C26.098 22.5351 26.2244 23.1529 26.5695 23.6913C26.9191 24.2367 27.2156 24.5136 27.4517 24.5136C27.6681 24.5136 27.8836 24.2311 27.7819 23.5489C27.7212 23.1414 27.4947 22.2574 26.9171 22.0389ZM45.0612 13.9526L43.8086 12.4458C43.6772 12.288 43.7896 12.0483 43.9952 12.0483H46.6162C46.741 11.6767 46.8115 11.2799 46.8115 10.8676C46.8115 8.98002 45.4065 7.35249 43.478 7.35249C41.5497 7.35249 40.1449 8.98002 40.1449 10.8676C40.1449 12.7552 41.5497 14.3597 43.478 14.3597C44.0624 14.3597 44.5976 14.2104 45.0612 13.9526ZM50.7301 16.4992C50.866 16.6498 50.7545 16.8922 50.5494 16.8922H47.689C47.5727 16.8922 47.4624 16.8404 47.3877 16.7509L46.9031 16.1679C45.9158 16.8081 44.7401 17.1817 43.478 17.1817C39.9966 17.1817 37.164 14.3493 37.164 10.8676C37.164 7.38596 39.9966 4.55355 43.478 4.55355C46.9599 4.55355 49.7923 7.38596 49.7923 10.8676C49.7923 12.1227 49.4226 13.2923 48.7889 14.2764L50.7301 16.4992ZM77.1519 4.84392H74.8174C74.6462 4.84392 74.5069 4.983 74.5069 5.15463V16.5806C74.5069 16.752 74.6462 16.8911 74.8174 16.8911H77.1519C77.323 16.8911 77.4623 16.752 77.4623 16.5806V5.15463C77.4623 4.983 77.323 4.84392 77.1519 4.84392ZM73.2238 4.84392H70.6123C70.4755 4.84392 70.3552 4.93256 70.3152 5.06214L68.2487 11.8145L65.9774 5.05468C65.9351 4.92895 65.8166 4.84392 65.6827 4.84392H63.8602C63.7266 4.84392 63.6079 4.92895 63.5658 5.05468L61.2945 11.8145L59.2278 5.06214C59.188 4.93256 59.0674 4.84392 58.9306 4.84392H56.3191C56.2192 4.84392 56.1256 4.89163 56.0672 4.97191C56.0089 5.05219 55.9931 5.15554 56.0247 5.24961L59.8605 16.6817C59.9028 16.8074 60.0215 16.8922 60.1549 16.8922H62.2277C62.3614 16.8922 62.4801 16.8074 62.5224 16.6819L64.7716 10.0029L67.0205 16.6819C67.0628 16.8074 67.1816 16.8922 67.3152 16.8922H69.388C69.5214 16.8922 69.6404 16.8074 69.6824 16.6817L73.5185 5.24961C73.5501 5.15554 73.5343 5.05219 73.4759 4.97191C73.4174 4.89163 73.3238 4.84392 73.2238 4.84392ZM55.036 5.15463V16.5806C55.036 16.752 54.897 16.8911 54.7255 16.8911H52.3911C52.2199 16.8911 52.0806 16.752 52.0806 16.5806V5.15463C52.0806 4.983 52.2199 4.84392 52.3911 4.84392H54.7255C54.897 4.84392 55.036 4.983 55.036 5.15463Z" fill="#F57D14"/>
</svg>
