<svg width="18" height="18" viewBox="0 0 18 18" fill="none" xmlns="http://www.w3.org/2000/svg">
<path d="M17.4913 15.0349L13.0065 10.55C12.6745 10.2181 12.2415 10.049 11.8064 10.042C13.4889 7.53523 13.2238 4.10014 11.0102 1.88653C8.49474 -0.628845 4.40195 -0.628845 1.88657 1.88653C-0.628858 4.40191 -0.628858 8.49475 1.88657 11.0101C4.10018 13.2237 7.53527 13.4889 10.042 11.8064C10.0491 12.2414 10.2181 12.6744 10.5501 13.0064L15.0349 17.4913C15.7133 18.1696 16.813 18.1696 17.4913 17.4913C18.1696 16.8129 18.1696 15.7132 17.4913 15.0349ZM9.60655 9.60646C7.86514 11.3479 5.03165 11.3479 3.29024 9.60646C1.54882 7.86505 1.54882 5.03157 3.29024 3.29015C5.03165 1.54873 7.86514 1.54873 9.60655 3.29015C11.348 5.03152 11.348 7.86505 9.60655 9.60646Z" fill="#6F6EFF"/>
</svg>
