<svg xmlns="http://www.w3.org/2000/svg" xmlns:xlink="http://www.w3.org/1999/xlink" width="34.694" height="23.423" viewBox="0 0 34.694 23.423">
  <defs>
    <clipPath id="clip-path">
      <rect id="Rectangle_6" data-name="Rectangle 6" width="34.694" height="23.423" fill="#5e5e7b"/>
    </clipPath>
  </defs>
  <g id="Group_53" data-name="Group 53" clip-path="url(#clip-path)">
    <path id="Path_23" data-name="Path 23" d="M377.753,1086.9a2.7,2.7,0,0,0-2.584-1.9h-2.936a2.706,2.706,0,0,0-2.588,1.916l-5.531,18.1a2.593,2.593,0,1,0,4.979,1.452l1.137-4.1h6.69l1.225,4.073a2.706,2.706,0,1,0,5.175-1.582Zm-6.76,11.512,1.385-4.958c.381-1.352.729-3.119,1.077-4.506h.066c.348,1.387.766,3.12,1.18,4.506l1.456,4.958Zm0,0" transform="translate(-364 -1085)" fill="#5e5e7b"/>
    <path id="Path_24" data-name="Path 24" d="M629.637,1197.178v-4.826c0-3.263-1.477-5.989-6.106-5.989a12.575,12.575,0,0,0-4.189.686,1.392,1.392,0,0,0-.872,1.693l.014.046a1.416,1.416,0,0,0,1.813.951,7.9,7.9,0,0,1,2.469-.425c2.13,0,2.528,1.051,2.528,1.789v.2c-4.912-.029-8.148,1.7-8.148,5.308a4.255,4.255,0,0,0,4.487,4.258,5,5,0,0,0,3.973-1.7h.084l.112.607a.959.959,0,0,0,.943.785h2.011a.959.959,0,0,0,.957-1.031c-.052-.683-.074-1.5-.074-2.348Zm-4.2-1.675a3.027,3.027,0,0,1-.085.738,2.356,2.356,0,0,1-2.242,1.59,1.55,1.55,0,0,1-1.7-1.646c0-1.675,1.761-2.214,4.031-2.186Zm0,0" transform="translate(-595.021 -1177.504)" fill="#5e5e7b"/>
  </g>
</svg>
