<svg xmlns="http://www.w3.org/2000/svg" width="27.177" height="27.177" viewBox="0 0 27.177 27.177">
  <path id="ic_wallpaper_24px" d="M4.718,4.718H14.23V2H4.718A2.726,2.726,0,0,0,2,4.718V14.23H4.718Zm8.153,12.23L7.435,23.742H23.742l-4.077-5.435-2.758,3.682Zm9.512-6.115a2.038,2.038,0,1,0-2.038,2.038A2.036,2.036,0,0,0,22.383,10.833ZM26.459,2H16.947V4.718h9.512V14.23h2.718V4.718A2.726,2.726,0,0,0,26.459,2Zm0,24.459H16.947v2.718h9.512a2.726,2.726,0,0,0,2.718-2.718V16.947H26.459ZM4.718,16.947H2v9.512a2.726,2.726,0,0,0,2.718,2.718H14.23V26.459H4.718Z" transform="translate(-2 -2)" fill="#5e5e7b"/>
</svg>
