<svg width="71" height="40" viewBox="0 0 71 40" fill="none" xmlns="http://www.w3.org/2000/svg">
<path fill-rule="evenodd" clip-rule="evenodd" d="M60.4685 26.609C60.3704 27.3958 60.2412 28.1514 60.0814 28.876C59.4091 28.6568 58.6329 28.3052 57.5375 28.3785C56.8837 28.4224 56.1102 28.6735 56.0996 29.263C56.0879 29.9163 57.1614 30.3047 57.7586 30.5902C58.8355 31.1055 59.9912 31.7922 60.0814 33.1894C60.1503 34.2635 59.6518 35.198 59.0858 35.7332C57.5786 37.1577 54.2345 37.3083 51.9521 36.3969C52.0944 35.6358 52.2237 34.8617 52.3396 34.0743C53.2231 34.4499 54.4368 34.9574 55.768 34.7932C56.3742 34.7181 57.1165 34.3646 57.0952 33.7426C57.0688 32.9835 55.6522 32.5321 54.9384 32.1388C54.109 31.6817 53.1651 30.9214 53.1134 29.761C53.0791 28.9878 53.3801 28.2637 53.7771 27.7702C54.9555 26.3057 57.9839 25.785 60.4685 26.609Z" fill="#3D4FAA"/>
<path fill-rule="evenodd" clip-rule="evenodd" d="M33.366 11.7987H36.4149L34.5378 23.6299H31.4885L33.366 11.7987Z" fill="#3D4FAA"/>
<path fill-rule="evenodd" clip-rule="evenodd" d="M25.4771 14.1508L25.0059 17.1193H25.888C26.7447 17.1193 27.5556 16.4519 27.6902 15.635C27.8247 14.8188 27.2335 14.1508 26.3766 14.1508H25.4771ZM22.8014 11.7982H27.4698C30.4399 11.7982 31.2112 13.5087 30.8871 15.5514C30.6165 17.2576 29.3905 18.3961 27.7985 18.8011L30.7556 23.6299H26.9279L24.7104 18.9838L23.9731 23.6299H20.9241L22.8014 11.7982Z" fill="#3D4FAA"/>
<path fill-rule="evenodd" clip-rule="evenodd" d="M47.2903 11.7987H50.3392L48.4621 23.6299H45.4128L47.2903 11.7987Z" fill="#3D4FAA"/>
<path fill-rule="evenodd" clip-rule="evenodd" d="M52.6557 11.7982H59.3501L58.9418 14.3709H55.297L54.976 16.3928H58.4412L58.0332 18.9652H54.5677L54.2358 21.0576H57.881L57.4727 23.6299H50.7786L52.6557 11.7982Z" fill="#3D4FAA"/>
<path fill-rule="evenodd" clip-rule="evenodd" d="M14.2944 11.7982H20.9886L20.5802 14.3709H16.9353L16.6145 16.3928H20.0798L19.6714 18.9652H16.2064L15.8741 21.0576H19.5194L19.1112 23.6299H12.417L14.2944 11.7982Z" fill="#3D4FAA"/>
<path fill-rule="evenodd" clip-rule="evenodd" d="M38.724 11.7982H45.4931L45.0852 14.3709H41.3646L41.0389 16.3928H44.4241L44.0144 18.9652H40.6305L39.8903 23.6299H36.8462L38.724 11.7982Z" fill="#3D4FAA"/>
<path fill-rule="evenodd" clip-rule="evenodd" d="M63.7851 14.3709C64.0059 14.3709 64.2151 14.3709 64.4149 14.3709C66.7456 14.3709 67.6566 16.0147 67.4056 17.6006C67.0676 19.728 65.5381 21.0576 63.5393 21.0576C63.2726 21.0576 63.0158 21.0576 62.724 21.0576L63.7851 14.3709ZM61.1442 11.7982H65.1178C69.8518 11.7982 70.9308 15.3786 70.5598 17.7171C70.0294 21.0576 67.0514 23.6299 63.2407 23.6299H59.2671L61.1442 11.7982Z" fill="#3D4FAA"/>
<path fill-rule="evenodd" clip-rule="evenodd" d="M0 10.1865H5.64052L6.31055 18.782C10.0423 12.3224 13.8355 6.10651 17.6561 0.0010797H19.4956C15.4508 7.80172 11.4573 15.6525 7.58937 23.6299H3.44843L2.43917 14.1508C2.18846 11.7982 1.71317 10.7992 0 10.5465V10.1865Z" fill="#3D4FAA"/>
<path fill-rule="evenodd" clip-rule="evenodd" d="M2.13582 5.29813L6.94493 7.33673L7.36276 12.6924H7.71819L12.0836 5.3019V4.93059H2.13501L2.13582 5.29813Z" fill="#F68C11"/>
<path fill-rule="evenodd" clip-rule="evenodd" d="M21.9063 26.4121H23.8799L23.2147 31.0753C23.7783 30.5312 24.4677 30.1948 25.2381 30.1948C26.8215 30.1948 27.8596 31.7204 27.5799 33.6034C27.3 35.4863 25.8074 37.0137 24.2241 37.0137C23.4435 37.0137 22.8838 36.6619 22.5025 36.0704L22.3973 36.81H20.4236L21.9063 26.4121ZM24.3694 32.1045C25.0987 32.1045 25.5942 32.7728 25.4758 33.5965C25.3579 34.4197 24.671 35.0876 23.9419 35.0876C23.2127 35.0876 22.7172 34.4197 22.8353 33.5965C22.9533 32.7728 23.6403 32.1045 24.3694 32.1045Z" fill="#3D4FAA"/>
<path fill-rule="evenodd" clip-rule="evenodd" d="M27.7491 30.3533H30.1172L31.1763 33.6585L33.2336 30.3533H35.5221L29.5163 40H27.228L29.7603 35.9322L27.7491 30.3533Z" fill="#3D4FAA"/>
<path fill-rule="evenodd" clip-rule="evenodd" d="M47.2893 36.8066L49.0238 26.409H51.8615L50.1271 36.8066H47.2893Z" fill="#3D4FAA"/>
<path fill-rule="evenodd" clip-rule="evenodd" d="M44.9172 26.3877C43.939 28.6906 43.1045 31.1374 42.0972 33.4108L41.8014 32.0467C41.8003 32.0418 41.7979 32.0354 41.7969 32.0304L41.8466 32.273C41.6279 31.5552 41.2559 30.8782 40.78 30.2575C40.7673 30.2414 40.755 30.2254 40.742 30.2093C40.6586 30.1026 40.5702 29.9987 40.4811 29.8952C40.4269 29.832 40.3713 29.7691 40.3148 29.7064C39.6277 28.9551 38.7949 28.3066 37.9155 27.7923L40.4382 36.7842H43.4796C44.9113 33.2755 46.4562 29.8809 47.9034 26.3877C46.9081 26.3877 45.9128 26.3877 44.9172 26.3877Z" fill="#3D4FAA"/>
<path fill-rule="evenodd" clip-rule="evenodd" d="M39.5612 26.3889H34.9221V26.6152C37.5926 27.1358 40.9641 29.3761 41.8466 32.2725L40.851 27.4297C40.7149 26.6831 40.1951 26.3889 39.5612 26.3889Z" fill="#F68C11"/>
<path fill-rule="evenodd" clip-rule="evenodd" d="M65.729 29.2677L64.2839 33.1337H66.6207L65.729 29.2677ZM70.0351 36.8389C69.1687 36.8389 68.3024 36.8389 67.436 36.8389C67.268 36.3431 67.221 35.7266 67.0489 35.235C65.8695 35.235 64.6895 35.235 63.5101 35.235L62.8463 36.8389C61.851 36.8389 60.8554 36.8389 59.8601 36.8389L63.7308 27.9358C63.9019 27.545 64.2095 27.0117 64.3394 26.7743C64.5362 26.4144 65.297 26.3872 65.6203 26.3872H67.7679L70.0351 36.8389Z" fill="#3D4FAA"/>
</svg>
