<svg width="28" height="28" viewBox="0 0 28 28" fill="none" xmlns="http://www.w3.org/2000/svg">
<path d="M14 0C6.26944 0 0 6.26944 0 14C0 21.7306 6.26944 28 14 28C21.7306 28 28 21.7306 28 14C28 6.26944 21.7306 0 14 0ZM20.1092 20.4856C20.0793 20.4856 20.0458 20.4856 20.016 20.4856C18.9872 20.3179 18.2865 19.5911 17.6864 18.9164C17.3472 18.5362 16.8328 17.6752 16.2141 17.7758C15.3381 17.9175 15.7705 19.4159 15.4052 20.057C15.1108 20.5751 13.8509 20.4819 12.9824 20.3887C10.2428 20.098 8.84132 18.6368 7.61502 17.0639C6.30298 15.3829 5.28168 13.6273 4.33493 11.6928C4.02929 11.0666 3.623 10.377 3.623 9.6017C4.06656 9.24015 4.7934 9.36315 5.52396 9.36315C6.1427 9.36315 7.11182 9.22524 7.56656 9.45634C7.83493 9.59425 8.11076 10.3211 8.32694 10.787C8.82641 11.853 9.2886 12.6209 9.89617 13.4968C10.1608 13.877 10.5634 14.5889 11.0367 14.4957C11.4952 14.4026 11.5399 13.2732 11.5586 12.5463C11.5809 11.7226 11.5586 10.7013 11.32 10.2652C11.0964 9.85517 10.6864 9.84398 10.2764 9.6017C10.6193 8.90841 11.5623 8.84132 12.6991 8.84132C13.6534 8.84132 14.9878 8.73323 15.3605 9.36315C15.7407 10.0043 15.4798 11.1597 15.4537 12.0245C15.4276 12.9973 15.2599 14 15.9271 14.4473C16.4452 14.3914 16.721 13.8882 17.0192 13.4968C17.6752 12.6395 18.0815 11.894 18.5884 10.787C18.7971 10.3323 19.0208 9.55325 19.3972 9.40788C19.9712 9.19169 20.8845 9.35943 21.7268 9.35943C22.4164 9.35943 23.6427 9.16933 23.8663 9.6427C24.049 10.0378 23.5122 11.033 23.3445 11.3051C22.7071 12.3488 22.0847 13.0122 21.3951 13.918C21.1193 14.2796 20.5527 14.861 20.5863 15.4388C20.6124 15.8786 21.0522 16.2141 21.3951 16.5309C22.1331 17.2167 22.6512 17.7162 23.2476 18.4803C23.4712 18.7673 23.9595 19.3898 23.9111 19.7625C23.7657 20.9366 21.0298 20.2061 20.1092 20.4856Z" fill="#6F6EFF"/>
</svg>
