<svg width="158" height="35" viewBox="0 0 158 35" fill="none" xmlns="http://www.w3.org/2000/svg">
<path d="M11.763 5.1897H10.3292C8.16104 5.1897 6.06297 6.62348 6.06297 10.7852C6.06297 14.8069 7.98593 16.101 10.3292 16.101H11.763V5.1897ZM9.52482 18.3392L5.25849 27.9214H2.14575L6.83236 17.6743C4.62867 16.5553 3.15987 14.5272 3.15987 10.7852C3.15987 5.53941 6.48212 2.91645 10.4342 2.91645H14.4559V27.9214H11.763V18.3392H9.52482Z" fill="#FF0000"/>
<path d="M66.7771 19.1082C66.7771 13.5823 68.9109 10.0504 73.0377 10.0504C74.611 10.0504 75.5204 10.4701 76.2898 10.9593L75.9051 13.5478C75.1707 12.9179 74.1216 12.3237 73.0025 12.3237C71.0439 12.3237 69.6454 14.5268 69.6454 18.9682C69.6454 23.3745 70.6942 25.8929 72.8975 25.8929C74.2263 25.8929 75.2407 25.3681 75.8701 24.8088L76.4995 26.8369C75.5554 27.6408 74.4363 28.1656 72.8275 28.1656C69.0504 28.1656 66.7771 25.1235 66.7771 19.1082ZM58.8038 19.1428V27.921H56.0759V10.295H58.8038V18.4433L63.0353 10.295H65.7983L61.4268 18.5835L66.4274 27.921H63.455L58.8038 19.1428ZM45.969 17.4994H50.4805C50.4805 14.4918 49.9908 12.2886 48.4173 12.2886C46.7384 12.2886 46.144 14.3517 45.969 17.4994ZM48.9767 28.1656C45.3396 28.1656 43.1017 25.2635 43.1017 19.8432C43.1017 14.1771 44.6755 10.0504 48.4173 10.0504C51.3549 10.0504 53.2785 12.2536 53.2785 18.2332V19.7376H45.934C45.934 23.7247 47.0532 25.8228 49.2214 25.8228C50.7602 25.8228 51.9844 25.1235 52.6838 24.6343L53.3135 26.7313C52.1944 27.6063 50.7252 28.1656 48.9767 28.1656ZM37.366 12.4982H34.3234V12.8133C34.3234 16.5204 34.1487 21.9402 32.6798 25.6828H37.366V12.4982ZM41.4575 31.3833H39.0099V27.921H31.4557V31.3833H29.008V25.6828H30.0922C31.7004 21.9402 31.8754 16.4854 31.8754 11.7988V10.295H40.059V25.6828H41.4575V31.3833ZM27.4341 10.295V27.921H24.7411V20.0178H20.6844V27.921H17.9565V10.295H20.6844V17.7785H24.7411V10.295H27.4341Z" fill="black"/>
<path d="M93.1961 4.35018H87.7757C87.6704 10.68 87.4954 15.5061 87.2157 19.1085C86.901 22.85 86.3413 25.3329 85.3975 26.488H93.1961V4.35018ZM95.0496 27.9213H84.3483L84.103 32.083H82.7395V26.488H83.4739C84.698 25.4729 85.2922 22.6754 85.6419 19.1085C85.9916 15.4016 86.0966 9.87557 86.2019 2.91634H94.9446V26.488H96.659V32.083H95.294L95.0496 27.9213Z" fill="black"/>
<path d="M100.053 18.0931H106.454C106.733 13.4077 105.335 11.3095 103.551 11.3095C101.698 11.3095 100.193 13.6873 100.053 18.0931ZM103.9 26.8369C106.243 26.8369 107.467 24.9489 107.467 24.9489L107.992 26.2764C107.992 26.2764 106.663 28.27 103.866 28.27C100.125 28.27 98.4102 24.8777 98.4102 19.1082C98.4102 13.3376 100.578 9.94528 103.551 9.94528C106.593 9.94528 108.551 13.128 107.992 19.3885H100.019C100.089 24.2139 101.348 26.8369 103.9 26.8369Z" fill="black"/>
<path d="M118.766 19.4233H112.751V27.9214H111.108V10.2954H112.751V18.0936H118.766V10.2954H120.41V27.9214H118.766V19.4233Z" fill="black"/>
<path d="M125.938 18.1291V26.6271H126.988C129.47 26.6271 131.149 25.4041 131.149 22.3609C131.149 19.3889 129.68 18.1291 127.162 18.1291H125.938ZM124.295 10.2954H125.938V16.8355H127.233C130.59 16.8355 132.758 18.6539 132.758 22.3264C132.758 26.0678 130.45 27.9214 127.127 27.9214H124.295V10.2954Z" fill="black"/>
<path d="M137.201 11.6596V27.9214H135.593V10.2954H143.042V11.6596H137.201Z" fill="black"/>
<path d="M153.781 15.6463C153.781 14.7368 153.85 13.9674 153.921 13.2329H153.816C153.571 14.0024 153.256 14.7368 152.872 15.5062L147.137 27.9214H145.738V10.2954H147.277V22.5355C147.277 23.4794 147.205 24.2489 147.137 25.0183H147.241C147.486 24.2144 147.835 23.445 148.185 22.6755L153.921 10.2954H155.354V27.9214H153.781V15.6463Z" fill="black"/>
</svg>
