<svg width="81" height="24" viewBox="0 0 81 24" fill="none" xmlns="http://www.w3.org/2000/svg">
<path d="M1.60209e-05 17.157V16.8793C-0.0119368 15.6417 0.753041 14.5269 1.91246 14.0866C2.49416 13.8367 3.11969 13.6939 3.75319 13.6622C4.21935 13.6185 4.6616 13.4281 5.0162 13.1266C5.53814 12.718 6.04015 12.2777 6.53819 11.8493C7.05614 11.3455 7.65378 10.9289 8.30321 10.6116C8.60602 10.4608 8.95265 10.4093 9.28732 10.4648C10.1957 10.564 11.0723 10.8615 11.8532 11.3336C12.5146 11.7541 13.0126 12.3888 13.2676 13.1306C13.4828 13.801 13.5585 14.5031 13.4907 15.2013C13.4429 15.602 13.427 16.0026 13.4549 16.4033C13.4987 16.9428 13.7616 17.4466 14.18 17.7917C14.4469 18.006 14.694 18.24 14.9251 18.4939C15.2438 18.839 15.3912 19.3071 15.3314 19.7712C15.2916 20.406 15.1482 21.0327 14.9011 21.6198C14.5824 22.3855 14.0127 23.0162 13.2835 23.4129C13.0007 23.5676 12.7098 23.7025 12.411 23.8215C12.1122 23.9326 11.7974 23.9921 11.4827 24.0079C10.9209 24 10.3671 23.8889 9.84911 23.6747C9.29529 23.4684 8.78132 23.1749 8.32712 22.806C7.93666 22.4926 7.58206 22.1593 7.21153 21.8261C6.67764 21.3065 5.96844 21.001 5.22338 20.9772C4.66558 20.9574 4.10779 20.9574 3.54999 20.9574C2.52604 20.9613 1.55786 20.5051 0.912412 19.7197C0.533907 19.2476 0.262977 18.6962 0.11556 18.1091C0.0398586 17.7878 0.00400028 17.4744 1.60209e-05 17.157Z" fill="#6F6EFF"/>
<path d="M17.71 6.66444C17.6981 7.14444 17.6304 7.62444 17.5068 8.08858C17.3355 8.76692 17.0447 9.41353 16.6542 9.99271C16.2638 10.6274 15.7099 11.1511 15.0565 11.5081C14.8215 11.6271 14.5704 11.7064 14.3115 11.7501C13.7577 11.8453 13.1999 11.5954 12.901 11.1193C12.6182 10.7306 12.4588 10.2664 12.4349 9.78643C12.3831 9.14378 12.4508 8.49717 12.6381 7.88229C12.8253 7.24362 13.1082 6.64064 13.4748 6.08924C13.7895 5.6013 14.1959 5.17684 14.6661 4.83172C15.0446 4.53023 15.5028 4.35172 15.9849 4.31205C16.0765 4.30015 16.1602 4.24461 16.208 4.16527C16.4271 3.72891 16.5427 3.24891 16.5427 2.757C16.5427 2.57056 16.5227 2.40395 16.5227 2.22147C16.5267 2.1818 16.5387 2.1461 16.5586 2.11039C16.5944 2.13023 16.6502 2.13023 16.6901 2.16593C16.7937 2.30874 16.8813 2.46345 16.949 2.63006C17.3036 3.34015 17.4471 4.1375 17.3594 4.92296C17.3515 5.038 17.3714 5.15304 17.4152 5.25618C17.6064 5.70444 17.7061 6.18048 17.71 6.66444Z" fill="#6F6EFF"/>
<path d="M8.53033 9.69915C8.06018 9.67138 7.62191 9.44924 7.32309 9.08824C7.04818 8.75502 6.84897 8.3742 6.72944 7.96163C6.57405 7.4261 6.49835 6.87072 6.50632 6.31535C6.52624 5.69651 6.6378 5.0856 6.841 4.50246C7.02826 3.88758 7.33903 3.31238 7.74941 2.82048C7.99644 2.51105 8.30721 2.25717 8.65782 2.07866C8.7654 2.02312 8.85703 1.93981 8.9168 1.83667C9.33116 1.11866 9.92083 0.515683 10.626 0.0793189C10.6739 0.0515503 10.7217 0.0277486 10.7735 0.00394699C10.8651 -0.0158877 10.9049 0.0237817 10.8651 0.115021C10.8452 0.150724 10.8093 0.190393 10.7894 0.226096C10.4189 0.737831 10.1957 1.33684 10.14 1.96362C10.124 2.07866 10.1718 2.1937 10.2714 2.26114C10.7456 2.6856 11.0603 3.26081 11.1639 3.88758C11.2675 4.30015 11.3193 4.72064 11.3113 5.1451C11.2954 5.64494 11.2356 6.13684 11.1241 6.62477C10.9806 7.35072 10.6699 8.037 10.2157 8.62411C9.86107 9.14378 9.32319 9.51271 8.70962 9.65948C8.65384 9.67932 8.59407 9.69122 8.53033 9.69915Z" fill="#6F6EFF"/>
<path d="M0.689293 8.83039C0.661403 7.9299 0.900458 7.0413 1.37857 6.27568C1.65348 5.82742 2.06386 5.47833 2.54994 5.27601C2.5858 5.25618 2.62166 5.24428 2.6615 5.24031C2.90454 5.24031 2.99618 5.0737 3.03204 4.87139C3.17547 4.36362 3.40656 3.89155 3.71733 3.46312C3.73725 3.44329 3.75319 3.40758 3.77311 3.40758C3.82491 3.39172 3.87272 3.37585 3.92053 3.35205C3.92053 3.40758 3.95639 3.46312 3.94045 3.51866C3.79702 4.0899 3.801 4.68891 3.95639 5.25618C3.99224 5.38312 4.05998 5.50213 4.15958 5.5894C4.64566 6.0099 4.99628 6.5613 5.16362 7.18015C5.37478 7.83072 5.43455 8.52097 5.35088 9.19535C5.27518 10.1276 4.86878 11.0003 4.19943 11.6549C3.82889 12.0317 3.31492 12.2261 2.78501 12.1904C2.48221 12.1507 2.19534 12.0357 1.94832 11.8572C1.51802 11.5319 1.18334 11.0995 0.984128 10.5996C0.780931 10.0363 0.681324 9.43337 0.689293 8.83039Z" fill="#6F6EFF"/>
<path d="M20.6624 10.5124C20.6584 10.9765 20.5429 11.4327 20.3277 11.8453C20.26 11.9682 20.248 12.119 20.2918 12.2539C20.4432 12.9679 20.3436 13.7137 20.0129 14.3643C19.6623 15.1299 19.1364 15.8043 18.471 16.3239C17.9451 16.7801 17.2997 17.0737 16.6144 17.1729C15.7976 17.2998 15.0247 16.7603 14.8693 15.951C14.7697 15.4036 14.8374 14.8363 15.0565 14.3246C15.443 13.3329 16.1163 12.476 16.9889 11.8651C17.3953 11.5557 17.8654 11.3415 18.3635 11.2344C18.6344 11.1907 18.9093 11.1867 19.1802 11.2145C19.3277 11.2463 19.4791 11.2066 19.5906 11.1034C19.9771 10.7702 20.2241 10.3101 20.2958 9.81022C20.2918 9.77055 20.2998 9.73485 20.3158 9.69914C20.3397 9.65948 20.3715 9.61981 20.4074 9.58807C20.4432 9.62377 20.499 9.66344 20.499 9.69914C20.5787 9.9689 20.6345 10.2386 20.6624 10.5124Z" fill="#6F6EFF"/>
<path d="M30.9756 7.77678C30.9398 8.68125 30.5533 9.53414 29.8959 10.1649C29.2465 10.7639 28.3859 11.0852 27.4974 11.0535C26.4734 11.0892 25.4853 10.6687 24.804 9.90703C24.0988 9.05017 23.7402 7.95926 23.8 6.85249C23.7681 5.76554 24.1227 4.7024 24.804 3.85348C25.4853 3.03232 26.5133 2.58406 27.5771 2.63166C28.3659 2.62373 29.1389 2.87761 29.7684 3.35364C30.3939 3.79397 30.8003 4.48026 30.884 5.24191H30.1031C29.9955 4.67464 29.6847 4.17083 29.2305 3.81778C28.0233 2.97678 26.3738 3.1791 25.4017 4.28191C24.8239 5.01579 24.5331 5.94009 24.5849 6.87232C24.5411 7.80059 24.8319 8.71298 25.4017 9.4429C25.9316 10.0816 26.7284 10.4386 27.5571 10.4029C28.2504 10.4346 28.9277 10.1728 29.4138 9.68092C29.8959 9.16125 30.1907 8.49877 30.2505 7.79265L30.9756 7.77678Z" fill="#6F6EFF"/>
<path d="M35.3623 2.79827L38.5776 10.867H37.721L36.7369 8.33215H33.0395L32.0554 10.867H31.2187L34.4898 2.79827H35.3623ZM36.5138 7.70141L34.936 3.52025L33.3025 7.72124L36.5138 7.70141Z" fill="#6F6EFF"/>
<path d="M44.6337 10.2006V10.8472H39.3187V2.81813H40.0996V10.2006H44.6337Z" fill="#6F6EFF"/>
<path d="M50.7296 10.2006V10.8472H45.4146V2.81813H46.1955V10.2006H50.7296Z" fill="#6F6EFF"/>
<path d="M51.4906 2.81811H54.945C55.5825 2.79034 56.2159 2.96488 56.7459 3.31794C57.2359 3.66306 57.5108 4.23827 57.471 4.83331C57.479 5.25381 57.3315 5.65844 57.0606 5.97976C56.8176 6.29711 56.467 6.51926 56.0765 6.6105C56.5427 6.68191 56.973 6.90406 57.3036 7.24125C57.6383 7.60224 57.8136 8.08224 57.7857 8.57414C57.8216 9.24058 57.5308 9.87926 57.0048 10.2958C56.4391 10.7004 55.7498 10.9107 55.0525 10.8869H51.4866V2.81811H51.4906ZM52.2516 3.46472V6.36852H54.8175C55.2916 6.38439 55.7617 6.26935 56.1721 6.0353C56.5546 5.79728 56.7698 5.36885 56.7299 4.92455C56.7379 4.66273 56.6821 4.40092 56.5626 4.16687C56.451 3.96455 56.2757 3.80587 56.0606 3.72257C55.8454 3.63133 55.6223 3.55992 55.3912 3.52025C55.1322 3.48058 54.8733 3.46075 54.6103 3.46472H52.2516ZM52.2516 6.99926V10.2006H54.6661C54.9529 10.2046 55.2358 10.1847 55.5187 10.145C55.7737 10.1014 56.0247 10.03 56.2638 9.9229C56.5028 9.81976 56.706 9.64521 56.8415 9.42306C56.9809 9.16125 57.0526 8.86769 57.0447 8.57017C57.0526 8.28455 56.9809 8.0029 56.8415 7.75695C56.702 7.5348 56.4948 7.36422 56.2478 7.27695C56.0008 7.18174 55.7458 7.1143 55.4868 7.07463C55.2039 7.03496 54.9171 7.01513 54.6342 7.0191H52.2556L52.2516 6.99926Z" fill="#6F6EFF"/>
<path d="M62.268 2.79827L65.4833 10.867H64.6307L63.6466 8.33215H59.9492L58.9651 10.867H58.1284L61.3994 2.79827H62.268ZM63.4195 7.70141L61.8417 3.50042L60.2082 7.70141H63.4195Z" fill="#6F6EFF"/>
<path d="M73.0096 7.77679C72.9737 8.68125 72.5872 9.53415 71.9338 10.1649C71.2844 10.7639 70.4238 11.0852 69.5353 11.0535C68.5113 11.0892 67.5232 10.6687 66.8419 9.90704C66.1367 9.05018 65.7781 7.95927 65.8379 6.85249C65.806 5.76555 66.1606 4.70241 66.8419 3.85349C67.5232 3.0363 68.5472 2.58406 69.611 2.63563C70.3999 2.6277 71.1728 2.88159 71.8023 3.35762C72.4279 3.79795 72.8343 4.48423 72.9179 5.24588H72.137C72.0294 4.67861 71.7187 4.17481 71.2645 3.82175C70.0572 2.98076 68.4077 3.18307 67.4356 4.28588C66.8579 5.01977 66.567 5.94406 66.6188 6.8763C66.575 7.80456 66.8658 8.71696 67.4356 9.44687C67.9655 10.0856 68.7623 10.4426 69.5911 10.4069C70.2843 10.4386 70.9617 10.1768 71.4477 9.68489C71.9298 9.16522 72.2247 8.50274 72.2844 7.79663L73.0096 7.77679Z" fill="#6F6EFF"/>
<path d="M80.6833 2.81813L77.0417 6.11069L80.8705 10.8671H79.8864L76.5038 6.63036L74.9619 8.03862V10.871H74.2009V2.81813H74.9619V7.14606L79.6633 2.81813H80.6833Z" fill="#6F6EFF"/>
<path d="M32.2211 13.8636V23.7255H30.0457V19.4689H25.9977V23.7255H23.8223V13.8636H25.9977V17.5807H30.0497V13.8636H32.2211Z" fill="#6F6EFF"/>
<path d="M42.5722 13.8636V19.7863C42.5722 21.1906 42.2375 22.2458 41.5483 22.9122C40.859 23.5787 39.8032 23.9119 38.3529 23.9119C36.8867 23.9119 35.8069 23.5787 35.1177 22.8924C34.4284 22.2061 34.0778 21.1708 34.0778 19.7466V13.8636H36.2532V19.7665C36.2014 20.4012 36.3647 21.0319 36.7193 21.5595C37.0182 21.9483 37.576 22.1347 38.3927 22.1347C39.1736 22.1347 39.6916 21.9483 39.9904 21.5595C40.3131 21.02 40.4606 20.3932 40.4167 19.7665V13.8636H42.5722Z" fill="#6F6EFF"/>
<path d="M44.4488 23.7255V13.8636H46.6601L50.728 20.4686V13.8636H52.8078V23.7255H50.6364L46.5286 17.1007V23.7255H44.4488Z" fill="#6F6EFF"/>
<path d="M62.119 13.8637V15.7122H59.1467V23.7215H56.9554V15.6924H53.9831V13.8438L62.119 13.8637Z" fill="#6F6EFF"/>
<path d="M70.6852 13.8636V15.6408H65.406V17.787H70.2549V19.4888H65.406V21.9126H70.7768V23.7255H63.2545V13.8636H70.6852Z" fill="#6F6EFF"/>
<path d="M72.3586 13.8636H77.2831C78.1397 13.824 78.9884 14.0659 79.6976 14.5499C80.335 15.0577 80.6817 15.8471 80.6259 16.6603C80.6418 17.1879 80.4984 17.7116 80.2155 18.1598C79.9406 18.5843 79.5382 18.9056 79.0641 19.0841C79.9167 19.2507 80.4028 20.0283 80.5303 21.377C80.5303 21.4326 80.5303 21.5635 80.5502 21.8015C80.5701 22.0395 80.586 22.2259 80.606 22.3767C80.6259 22.5274 80.6418 22.6901 80.6817 22.8964C80.7016 23.0749 80.7454 23.2494 80.8131 23.416C80.849 23.5271 80.9128 23.6302 81.0004 23.7135H78.7533C78.6696 23.539 78.6138 23.3486 78.5859 23.1582C78.5381 22.8686 78.5063 22.579 78.4943 22.2894C78.4704 22.0911 78.4585 21.8967 78.4585 21.6983C78.4505 21.1747 78.2672 20.6669 77.9365 20.2544C77.5182 19.945 77.0042 19.8021 76.4862 19.8458H74.514V23.7294H72.3586V13.8636ZM74.514 15.5655V18.3026H76.5779C77.064 18.3264 77.55 18.2312 77.9923 18.025C78.3588 17.779 78.5541 17.3506 78.4943 16.9142C78.5421 16.4977 78.3509 16.0851 77.9923 15.859C77.5819 15.6567 77.1277 15.5615 76.6735 15.5813H74.518L74.514 15.5655Z" fill="#6F6EFF"/>
</svg>
