<svg xmlns="http://www.w3.org/2000/svg" width="23.315" height="18.652" viewBox="0 0 23.315 18.652">
  <path id="ic_folder_shared_24px" d="M22.984,6.332H13.658L11.326,4H4.332a2.328,2.328,0,0,0-2.32,2.332L2,20.321a2.338,2.338,0,0,0,2.332,2.332H22.984a2.338,2.338,0,0,0,2.332-2.332V8.663A2.338,2.338,0,0,0,22.984,6.332Zm-5.829,3.5a2.332,2.332,0,1,1-2.332,2.332A2.338,2.338,0,0,1,17.155,9.829Zm4.663,9.326H12.492V17.989c0-1.55,3.113-2.332,4.663-2.332s4.663.781,4.663,2.332Z" transform="translate(-2 -4)" fill="#14141c"/>
</svg>
