<svg width="28" height="28" viewBox="0 0 28 28" fill="none" xmlns="http://www.w3.org/2000/svg">
<path fill-rule="evenodd" clip-rule="evenodd" d="M28 14C28 21.732 21.732 28 14 28C6.26801 28 0 21.732 0 14C0 6.26801 6.26801 0 14 0C21.732 0 28 6.26801 28 14ZM16.9846 19.1414C17.0104 19.0793 17.0238 19.0127 17.0239 18.9454V18.9476H17.0247V11.2795C17.0246 11.2121 17.0113 11.1455 16.9854 11.0833C16.9595 11.0211 16.9216 10.9646 16.8738 10.9171C16.8261 10.8696 16.7695 10.8319 16.7072 10.8063C16.6449 10.7807 16.5782 10.7676 16.5108 10.7678H8.80114C8.73384 10.7677 8.66719 10.7808 8.60498 10.8065C8.54277 10.8322 8.48622 10.8698 8.43857 10.9174C8.39091 10.9649 8.35309 11.0213 8.32724 11.0834C8.3014 11.1456 8.28805 11.2122 8.28795 11.2795V11.2773H8.2871L8.2871 18.9454C8.2872 19.0127 8.30058 19.0794 8.32646 19.1416C8.35235 19.2038 8.39025 19.2602 8.43798 19.3078C8.48571 19.3553 8.54235 19.3929 8.60464 19.4186C8.66694 19.4442 8.73367 19.4573 8.80103 19.4571H16.5107C16.578 19.4572 16.6446 19.444 16.7069 19.4183C16.7691 19.3927 16.8256 19.355 16.8733 19.3075C16.9209 19.26 16.9587 19.2035 16.9846 19.1414ZM8.80103 9.74363V9.74353C8.39335 9.74294 8.00209 9.90407 7.71305 10.1916C7.42402 10.4791 7.26082 10.8695 7.25925 11.2772V18.9454C7.26023 19.3534 7.42317 19.7444 7.71227 20.0324C8.00136 20.3204 8.39297 20.4818 8.80103 20.4812L16.5107 20.4812H16.5108V20.4813C16.9185 20.4819 17.3097 20.3208 17.5988 20.0333C17.8878 19.7458 18.051 19.3554 18.0526 18.9477V11.2795C18.0516 10.8714 17.8887 10.4805 17.5996 10.1925C17.3105 9.90448 16.9189 9.74304 16.5108 9.74363H8.80114H8.80103ZM10.8132 8.59907C10.7874 8.66121 10.774 8.72782 10.7739 8.79512V8.7929H9.74535C9.74691 8.38522 9.91012 7.99481 10.1992 7.7073C10.4882 7.4198 10.8795 7.25867 11.2871 7.25926H18.9968C19.4049 7.25867 19.7965 7.4201 20.0856 7.70809C20.3747 7.99608 20.5376 8.38706 20.5386 8.79512V16.4633C20.537 16.871 20.3738 17.2614 20.0848 17.5489C19.7957 17.8364 19.4045 17.9975 18.9968 17.9969V16.975C19.1328 16.9752 19.2633 16.9214 19.3596 16.8255C19.456 16.7295 19.5103 16.5993 19.5107 16.4633V8.79512C19.5106 8.72776 19.4972 8.66108 19.4714 8.5989C19.4455 8.53671 19.4076 8.48024 19.3598 8.43272C19.3121 8.38519 19.2555 8.34754 19.1932 8.32192C19.1309 8.2963 19.0641 8.28322 18.9968 8.28341H11.2871C11.2198 8.28332 11.1532 8.29647 11.091 8.32214C11.0288 8.3478 10.9722 8.38546 10.9246 8.43298C10.8769 8.4805 10.8391 8.53693 10.8132 8.59907Z" fill="#6F6EFF"/>
</svg>
