<svg xmlns="http://www.w3.org/2000/svg" width="33.055" height="30.679" viewBox="0 0 33.055 30.679">
  <path id="Path_20" data-name="Path 20" d="M542.5,1228.878a.917.917,0,0,0,.913-.8c.447-3.554,2.811-14.08,15.086-14.08,5.055,0,8.951-1.459,11.581-4.338a14.909,14.909,0,0,0,3.551-9.513.922.922,0,0,0-.921-.952h-.02a.916.916,0,0,0-.92.89,13.12,13.12,0,0,1-3.063,8.322c-2.261,2.476-5.7,3.729-10.207,3.729-13.558,0-16.353,11.71-16.912,15.7a.916.916,0,0,0,.914,1.041Z" transform="translate(-541.079 -1198.699)" fill="#14141c" stroke="#14141c" stroke-width="1"/>
</svg>
