<svg xmlns="http://www.w3.org/2000/svg" width="11.537" height="12.101" viewBox="0 0 11.537 12.101">
  <path id="Path_30" data-name="Path 30" d="M355.5,249.723l-1.216-1.676,1.216-1.676a.215.215,0,0,0,.027-.2.188.188,0,0,0-.135-.135l-1.973-.649v-2.068a.21.21,0,0,0-.088-.175.2.2,0,0,0-.2-.027l-1.973.635-1.216-1.676a.231.231,0,0,0-.352,0l-1.216,1.676-1.973-.635a.2.2,0,0,0-.2.027.211.211,0,0,0-.087.175v2.068l-1.973.649a.187.187,0,0,0-.135.135.213.213,0,0,0,.027.2l1.216,1.676-1.216,1.676a.209.209,0,0,0-.027.2.187.187,0,0,0,.135.135l1.973.649v2.068a.212.212,0,0,0,.087.176.2.2,0,0,0,.2.027l1.973-.635,1.216,1.676a.22.22,0,0,0,.352,0l1.216-1.676,1.973.635a.2.2,0,0,0,.2-.027.211.211,0,0,0,.088-.176V250.7l1.973-.649a.187.187,0,0,0,.135-.135.211.211,0,0,0-.027-.2Z" transform="translate(-343.999 -242)" fill="#5e5e7b"/>
</svg>
