<svg width="28" height="28" viewBox="0 0 28 28" fill="none" xmlns="http://www.w3.org/2000/svg">
<path fill-rule="evenodd" clip-rule="evenodd" d="M14 28C21.732 28 28 21.732 28 14C28 6.26801 21.732 0 14 0C6.26801 0 0 6.26801 0 14C0 21.732 6.26801 28 14 28ZM18.7882 18.2488V12.3608L19.8934 11.2707V18.2496C19.8917 18.6877 19.7163 19.1072 19.4058 19.4161C19.0952 19.725 18.6748 19.8981 18.2367 19.8975H9.9529C9.51445 19.8981 9.09368 19.7247 8.78305 19.4152C8.47243 19.1058 8.29735 18.6857 8.2963 18.2472V10.008C8.29798 9.56993 8.47334 9.15044 8.7839 8.84152C9.09446 8.5326 9.51486 8.35947 9.9529 8.36011H16.8268L15.7136 9.45815H9.9529C9.8068 9.45794 9.66658 9.51572 9.56305 9.61881C9.45951 9.7219 9.40112 9.86186 9.4007 10.008V18.2488C9.40081 18.3212 9.41518 18.3929 9.44299 18.4597C9.47081 18.5265 9.51153 18.5872 9.56282 18.6382C9.6141 18.6893 9.67495 18.7297 9.74189 18.7573C9.80882 18.7848 9.88053 18.7989 9.9529 18.7987H18.2367C18.3091 18.7988 18.3807 18.7846 18.4475 18.757C18.5144 18.7295 18.5751 18.689 18.6263 18.638C18.6775 18.5869 18.7182 18.5263 18.7459 18.4595C18.7737 18.3927 18.788 18.3211 18.7882 18.2488ZM13.376 13.6165L12.9527 15.1927L14.5504 14.7782L20.5753 8.77474L19.3977 7.61145L13.376 13.6165ZM21.966 7.53198L20.6629 8.83503L19.3531 7.52522L20.6562 6.22217L21.966 7.53198Z" fill="#6F6EFF"/>
</svg>
