<svg width="14" height="17" viewBox="0 0 14 17" fill="none" xmlns="http://www.w3.org/2000/svg">
<path d="M6.31287 16.2354C6.31287 16.5115 6.53672 16.7354 6.81287 16.7354C7.08901 16.7354 7.31287 16.5115 7.31287 16.2354H6.31287ZM6.81287 0.652344L7.16831 0.300696C7.02574 0.156582 6.81026 0.112817 6.62277 0.189891C6.43527 0.266966 6.31287 0.449623 6.31287 0.652344L6.81287 0.652344ZM12.6444 7.25788C12.8387 7.45419 13.1552 7.45589 13.3515 7.26168C13.5478 7.06747 13.5496 6.75089 13.3553 6.55458L12.6444 7.25788ZM0.276388 6.55458C0.0821776 6.75089 0.083879 7.06747 0.280188 7.26168C0.476496 7.45589 0.793074 7.45419 0.987284 7.25788L0.276388 6.55458ZM7.17431 1.00399C7.36852 0.807683 7.36682 0.491105 7.17051 0.296895C6.9742 0.102685 6.65762 0.104387 6.46341 0.300696L7.17431 1.00399ZM7.31287 16.2354V0.652344H6.31287V16.2354H7.31287ZM6.45742 1.00399L12.6444 7.25788L13.3553 6.55458L7.16831 0.300696L6.45742 1.00399ZM0.987284 7.25788L7.17431 1.00399L6.46341 0.300696L0.276388 6.55458L0.987284 7.25788Z" fill="#8DCE97"/>
</svg>
