<svg id="Group_67" data-name="Group 67" xmlns="http://www.w3.org/2000/svg" xmlns:xlink="http://www.w3.org/1999/xlink" width="26.979" height="30.5" viewBox="0 0 26.979 30.5">
  <defs>
    <clipPath id="clip-path">
      <rect id="Rectangle_7" data-name="Rectangle 7" width="26.979" height="30.5" fill="#14141c"/>
    </clipPath>
  </defs>
  <g id="Group_66" data-name="Group 66" clip-path="url(#clip-path)">
    <path id="Path_25" data-name="Path 25" d="M533.732,1211.35l10.208,2.88a1.441,1.441,0,0,0,.671,0l10.284-2.881a.539.539,0,0,0,.366-.441l2.364-26.56a.312.312,0,0,0-.318-.347H531.319a.312.312,0,0,0-.316.347l2.364,26.56a.543.543,0,0,0,.366.443Zm2.553-21.777h16.056a.312.312,0,0,1,.317.347l-.24,2.621a.388.388,0,0,1-.38.347H539.961a.317.317,0,0,0-.32.349l.228,2.735a.384.384,0,0,0,.376.347h11.509a.313.313,0,0,1,.316.347l-.883,9.616a.543.543,0,0,1-.368.439l-6.132,1.692a3.447,3.447,0,0,0-.337.1c0,.005-.017.008-.037.008s-.189-.041-.375-.092l-6.188-1.711a.534.534,0,0,1-.364-.439l-.361-4.575a.316.316,0,0,1,.32-.347h2.62a.388.388,0,0,1,.381.347l.182,1.959a.539.539,0,0,0,.37.438l3.041.824a1.554,1.554,0,0,0,.672,0l3.062-.824a.539.539,0,0,0,.369-.437l.351-3.627a.309.309,0,0,0-.315-.345h-10.9a.389.389,0,0,1-.38-.347l-.829-9.428a.314.314,0,0,1,.319-.347Zm0,0" transform="translate(-531 -1184)" fill="#14141c"/>
  </g>
</svg>
