<svg width="18" height="19" viewBox="0 0 18 19" fill="none" xmlns="http://www.w3.org/2000/svg">
<path d="M9.04428 7.68161C8.00019 7.68161 7.15543 8.52637 7.15543 9.57046C7.15543 10.6145 8.00019 11.4593 9.04428 11.4593C10.0884 11.4593 10.9331 10.6145 10.9331 9.57046C10.9331 8.52637 10.0884 7.68161 9.04428 7.68161Z" fill="#6F6EFF"/>
<path d="M9.04665 0.698181C4.12519 0.698181 0.133919 4.68945 0.133919 9.61091C0.133919 14.5324 4.12519 18.5236 9.04665 18.5236C13.9681 18.5236 17.9594 14.5324 17.9594 9.61091C17.9594 4.68708 13.9681 0.698181 9.04665 0.698181ZM14.2837 12.532C14.2837 13.8846 13.1779 14.9927 11.823 14.9927H6.26794C4.91537 14.9927 3.80722 13.8869 3.80722 12.532V6.68983C3.80722 5.33726 4.913 4.2291 6.26794 4.2291H11.823C13.1755 4.2291 14.2837 5.33489 14.2837 6.68983V12.532Z" fill="#6F6EFF"/>
<path d="M11.2369 5.03352H6.85644C6.26084 5.03352 5.69845 5.26843 5.2737 5.69319C4.84894 6.11794 4.61402 6.68033 4.61402 7.27594V11.9435C4.61402 12.5391 4.84894 13.1015 5.2737 13.5262C5.69845 13.951 6.26084 14.1859 6.85644 14.1859H11.2369C11.8325 14.1859 12.3949 13.951 12.8196 13.5262C13.2444 13.1015 13.4793 12.5391 13.4793 11.9435V7.27594C13.4793 6.68033 13.2444 6.11794 12.8196 5.69319C12.3949 5.26843 11.8325 5.03352 11.2369 5.03352ZM9.06327 12.4537C7.47103 12.4537 6.17778 11.1628 6.17778 9.56819C6.17778 7.97595 7.46866 6.6827 9.06327 6.6827C10.6579 6.6827 11.9488 7.97358 11.9488 9.56819C11.9464 11.1628 10.6555 12.4537 9.06327 12.4537ZM11.9938 7.3234C11.6165 7.3234 11.3104 7.01729 11.3104 6.63999C11.3104 6.2627 11.6165 5.95659 11.9938 5.95659C12.3711 5.95659 12.6772 6.2627 12.6772 6.63999C12.6772 7.01729 12.3711 7.3234 11.9938 7.3234Z" fill="#6F6EFF"/>
</svg>
