<svg width="40" height="15" viewBox="0 0 40 15" fill="none" xmlns="http://www.w3.org/2000/svg">
<path fill-rule="evenodd" clip-rule="evenodd" d="M26.8487 1.31009L26.6645 2.5504C26.3321 2.35239 25.9498 2.24519 25.5588 2.24032C24.6374 2.24032 23.9925 3.12626 23.9925 4.41087C23.9925 5.2968 24.4071 5.82836 25.1442 5.82836C25.5197 5.81681 25.8853 5.70982 26.2038 5.51828L25.9734 6.84719C25.6174 6.96365 25.2439 7.0235 24.8678 7.02437C23.5317 7.02437 22.7025 6.04984 22.7025 4.54375C22.7025 2.46181 23.8542 1.00002 25.4667 1.00002C25.6522 0.988674 25.8385 1.0036 26.0195 1.04431L26.5263 1.1772C26.6246 1.23985 26.7338 1.28488 26.8487 1.31009ZM37.3526 6.22704C37.3484 6.03369 37.4232 5.84646 37.5611 5.70562C37.6989 5.56479 37.8888 5.48162 38.0897 5.474C38.1904 5.47413 38.2901 5.49404 38.3825 5.53251C38.4749 5.57097 38.5582 5.62718 38.6272 5.69769C38.6962 5.7682 38.7495 5.85153 38.7839 5.94255C38.8182 6.03358 38.8328 6.13039 38.8269 6.22704C38.8311 6.4204 38.7563 6.60763 38.6184 6.74847C38.4806 6.8893 38.2907 6.97247 38.0897 6.98009C37.989 6.97996 37.8894 6.96005 37.797 6.92158C37.7046 6.88312 37.6213 6.82691 37.5523 6.7564C37.4833 6.68589 37.43 6.60256 37.3956 6.51154C37.3613 6.42051 37.3467 6.3237 37.3526 6.22704ZM38.0897 6.8029C38.1656 6.80064 38.2402 6.78387 38.3092 6.75357C38.3782 6.72328 38.4403 6.68006 38.4918 6.62645C38.5432 6.57284 38.5831 6.50992 38.609 6.44134C38.6349 6.37276 38.6463 6.29991 38.6426 6.22704C38.6421 6.08196 38.585 5.94233 38.4826 5.83572C38.3803 5.72911 38.2401 5.66327 38.0897 5.65119C37.9309 5.65119 37.7786 5.71186 37.6662 5.81985C37.5539 5.92785 37.4908 6.07432 37.4908 6.22704C37.4908 6.37977 37.5539 6.52624 37.6662 6.63424C37.7786 6.74223 37.9309 6.8029 38.0897 6.8029ZM37.9515 6.58142H37.8133V5.91697H38.0897C38.1547 5.91034 38.22 5.92603 38.274 5.96126C38.3026 5.98189 38.3259 6.00865 38.3419 6.0394C38.3578 6.07015 38.3662 6.10407 38.3662 6.13845C38.3662 6.17284 38.3578 6.20675 38.3419 6.2375C38.3259 6.26826 38.3026 6.29501 38.274 6.31564L38.4122 6.62572H38.2279L38.1358 6.35993H38.0437V6.58142H37.9515ZM37.9515 6.18275H38.1358C38.1609 6.15887 38.1771 6.12774 38.1819 6.09415C38.1819 6.08241 38.177 6.07114 38.1684 6.06283C38.1598 6.05452 38.148 6.04986 38.1358 6.04986H37.9515V6.18275ZM22.6104 2.15174H22.7486C22.5498 2.5905 22.4104 3.05201 22.3339 3.52494H22.2418C21.6429 3.52494 21.5507 4.0122 21.0901 6.89149H19.8462L20.5833 2.19603H21.689L21.5968 2.90478C21.9654 2.37322 22.1957 2.15174 22.6104 2.15174ZM15.3774 6.84721C15.0953 6.94406 14.8009 7.00366 14.5021 7.02439C13.8571 7.02439 13.5347 6.67002 13.5347 6.00557C13.5293 5.8566 13.5448 5.7076 13.5807 5.5626L13.6729 5.11963L13.7189 4.76526L14.2718 1.5316H15.5156L15.3774 2.24035H16.0224L15.8381 3.39206H15.1932L14.8707 5.34112V5.5183C14.8707 5.78409 15.0089 5.87268 15.2853 5.87268C15.3949 5.88313 15.5056 5.86793 15.6078 5.82838L15.3774 6.84721ZM10.7773 4.50985C10.6118 4.27127 10.5289 3.98863 10.5401 3.7021C10.5401 2.81616 11.0008 2.10742 12.4289 2.15171C12.7837 2.16112 13.1375 2.1907 13.4885 2.24031L13.3043 3.34772C13.0147 3.30081 12.7223 3.27122 12.4289 3.25913C12.0143 3.25913 11.83 3.39202 11.83 3.6578C11.83 3.87929 11.8761 3.96788 12.3829 4.18936C12.6574 4.29179 12.8905 4.47611 13.048 4.71528C13.2056 4.95445 13.2792 5.23588 13.2582 5.51827C13.2582 6.58139 12.6593 7.06865 11.3694 7.06865C11.2865 7.06865 11.1944 7.0597 11.0929 7.04985L11.0929 7.04985L11.0929 7.04985C10.9687 7.03778 10.8305 7.02435 10.6783 7.02435C10.6022 7.02435 10.5401 7.01093 10.4843 6.99886C10.4386 6.98901 10.3972 6.98006 10.3558 6.98006L10.1255 6.93576H10.0794L10.2637 5.82834C10.6189 5.94814 10.9929 6.00808 11.3694 6.00553C11.83 6.00553 12.0604 5.87264 12.0604 5.56256C12.0604 5.34108 11.9683 5.25248 11.4615 5.031C11.1821 4.93078 10.9427 4.74842 10.7773 4.50985ZM36.6155 6.93577H35.4637L35.5098 6.4928C35.3723 6.65952 35.1971 6.79401 34.9976 6.8861C34.7981 6.97818 34.5794 7.02546 34.3581 7.02436C33.4367 7.02436 32.8839 6.22702 32.8839 5.0753C32.8839 3.52492 33.8052 2.19601 34.8648 2.19601C35.0999 2.20708 35.3295 2.26851 35.5367 2.3758C35.7439 2.4831 35.9236 2.63355 36.0626 2.81617L36.3391 1.17719H37.5369L36.6155 6.93577ZM34.8188 5.82835C35.4177 5.82835 35.7862 5.1639 35.7862 4.23366C35.7862 3.61351 35.5559 3.30343 35.1413 3.30343C34.5884 3.30343 34.1738 3.96788 34.1738 4.89812C34.1738 5.51827 34.4042 5.82835 34.8188 5.82835ZM18.0034 6.98007C18.4406 6.98964 18.8764 6.92978 19.2934 6.80288L19.5237 5.60687C19.1257 5.80807 18.6834 5.91441 18.2338 5.91695C17.5427 5.91695 17.1741 5.65117 17.1741 5.07531V4.94242H19.6158C19.6997 4.56359 19.746 4.17795 19.754 3.7907C19.754 2.72758 19.1091 2.06313 18.0955 2.06313C16.8516 2.06313 15.9303 3.21484 15.9303 4.85382C15.9303 6.27132 16.6213 6.98007 18.0034 6.98007ZM18.6023 3.7907V4.01219H17.2202C17.3584 3.48062 17.6349 3.17055 18.0034 3.17055C18.0874 3.16578 18.1714 3.17894 18.2495 3.20907C18.3275 3.2392 18.3977 3.28556 18.4549 3.34483C18.5122 3.4041 18.5551 3.47482 18.5805 3.5519C18.606 3.62898 18.6135 3.71053 18.6023 3.7907ZM5.61067 6.93577H4.36678L5.1039 2.4618L3.49146 6.93577H2.66222L2.57007 2.50609L1.83295 6.93577H0.681215L1.64868 1.1329H3.39933L3.44539 4.72093L4.6432 1.1329H6.57812L5.61067 6.93577ZM8.51305 4.80954H8.78948C8.74341 5.51828 8.37485 6.00555 7.91415 6.00555C7.84903 6.00768 7.78421 5.99616 7.72418 5.97179C7.66415 5.94742 7.61035 5.91078 7.56652 5.86443C7.52269 5.81807 7.48988 5.7631 7.47035 5.70332C7.45083 5.64355 7.44506 5.58041 7.45346 5.51828C7.45346 5.07532 7.82201 4.80954 8.51305 4.80954ZM8.65125 6.93578H9.66479L9.80299 6.80289V6.6257L9.84908 6.40422L9.89514 6.09414L10.1255 4.41086C10.1887 4.10456 10.2195 3.7929 10.2176 3.48063C10.2176 2.5947 9.66479 2.10743 8.60519 2.10743C8.10236 2.1214 7.60491 2.21109 7.13096 2.37321L6.9467 3.43634L7.03882 3.39204L7.17705 3.34774C7.50657 3.2572 7.84785 3.21245 8.19056 3.21485C8.74339 3.21485 8.97375 3.34774 8.97375 3.65782C8.97546 3.76287 8.95992 3.86751 8.92769 3.9679C8.76131 3.93311 8.59108 3.91823 8.42091 3.9236C7.03882 3.9236 6.25564 4.58805 6.25564 5.73977C6.25564 6.49281 6.71634 7.02437 7.36131 7.02437C7.60894 7.03736 7.8561 6.99163 8.08104 6.89122C8.30597 6.7908 8.50177 6.63878 8.65125 6.44852V6.93578ZM28.9679 4.80954H28.6915C28.0005 4.80954 27.6319 5.07532 27.6319 5.51828C27.6235 5.58041 27.6293 5.64355 27.6488 5.70332C27.6683 5.7631 27.7012 5.81807 27.745 5.86443C27.7888 5.91078 27.8426 5.94742 27.9026 5.97179C27.9627 5.99616 28.0275 6.00768 28.0926 6.00555C28.5533 6.00555 28.9219 5.51828 28.9679 4.80954ZM29.8433 6.93578H28.8297V6.44852C28.6803 6.63878 28.4844 6.7908 28.2595 6.89122C28.0346 6.99163 27.7874 7.03736 27.5398 7.02437C26.8948 7.02437 26.4341 6.49281 26.4341 5.73977C26.4341 4.58805 27.2173 3.9236 28.5994 3.9236C28.7696 3.91823 28.9398 3.93311 29.1062 3.9679C29.1384 3.86751 29.1539 3.76287 29.1522 3.65782C29.1522 3.34774 28.9219 3.21485 28.369 3.21485C28.0263 3.21245 27.685 3.2572 27.3555 3.34774L27.1712 3.39204L27.0791 3.43634L27.2634 2.37321C27.7373 2.21109 28.2348 2.1214 28.7376 2.10743C29.7972 2.10743 30.35 2.5947 30.35 3.48063C30.3519 3.7929 30.3211 4.10456 30.2579 4.41086L29.9815 6.09414L29.9354 6.40422L29.8893 6.6257V6.80289L29.8433 6.93578ZM33.1603 2.15174H33.2985C33.0997 2.59051 32.9603 3.05202 32.8839 3.52494H32.7917C32.1928 3.52494 32.1007 4.0122 31.64 6.89149H30.3961L31.1332 2.19603H32.2389L32.1467 2.90478C32.5153 2.37322 32.7456 2.15174 33.1603 2.15174ZM28.1387 11.4983C28.1387 12.5615 27.8162 13.1816 27.2634 13.1816C26.8488 13.1816 26.6184 12.7829 26.6184 12.1185C26.6184 11.3654 26.987 10.5238 27.5398 10.5238C27.9544 10.5681 28.1387 11.0111 28.1387 11.4983ZM29.3365 11.4983C29.3365 10.3023 28.7376 9.37209 27.5859 9.37209C26.2499 9.37209 25.4206 10.4795 25.4206 12.1628C25.4206 13.3588 25.9274 14.3333 27.1712 14.3333C28.4151 14.3333 29.3365 13.4917 29.3365 11.4983ZM25.6049 9.81505L25.7892 8.57474C25.751 8.55639 25.7207 8.54564 25.6853 8.53305C25.6351 8.51524 25.5746 8.49375 25.4667 8.44185L25.006 8.30896C24.8402 8.27022 24.6695 8.25529 24.4992 8.26466C22.9789 8.26466 21.9193 9.72646 21.9193 11.8084C21.9193 13.3145 22.7025 14.289 23.9464 14.289C24.2924 14.2873 24.6354 14.2274 24.9599 14.1118L25.1442 12.7829C24.8585 12.9717 24.5231 13.0792 24.1767 13.093C23.5317 13.093 23.1171 12.5614 23.1171 11.6755C23.1171 10.3909 23.716 9.50497 24.5914 9.50497C24.9523 9.51756 25.3028 9.62479 25.6049 9.81505ZM18.1877 9.41639H18.0495C17.6809 9.41639 17.4506 9.63788 17.082 10.1694L17.1741 9.46069H16.1606L15.5156 14.2004H16.6674C17.082 11.3212 17.1741 10.8339 17.727 10.8339H17.8191C17.9037 10.3529 18.0269 9.87903 18.1877 9.41639ZM32.1007 14.1561H33.1603L34.1277 8.44186H32.976L32.6996 10.0808C32.5922 9.88645 32.4335 9.7227 32.2394 9.60605C32.0453 9.4894 31.8227 9.42399 31.5939 9.41638C30.5804 9.41638 29.705 10.7453 29.705 12.2957C29.705 13.4474 30.2579 14.2447 31.0871 14.2447C31.2943 14.2399 31.4975 14.1895 31.6812 14.0974C31.8649 14.0052 32.0241 13.8738 32.1467 13.7132L32.1007 14.1561ZM32.3771 11.454C32.3771 12.3843 32.0085 13.0487 31.4557 13.0487C31.0871 13.0487 30.9029 12.7386 30.9029 12.1185C30.9029 11.1883 31.2714 10.5238 31.7782 10.5238C32.1467 10.5238 32.3771 10.8339 32.3771 11.454ZM7.40743 14.1118C7.02223 14.2387 6.61663 14.2987 6.2096 14.289C4.91965 14.289 4.27469 13.5803 4.27469 12.1628C4.27469 10.5681 5.15 9.37209 6.25567 9.37209C7.22313 9.37209 7.82204 10.0365 7.82204 11.0997C7.81399 11.4869 7.76772 11.8725 7.68383 12.2514H5.42642V12.3843C5.42642 12.9158 5.7489 13.2259 6.43995 13.2259C6.86093 13.2278 7.2747 13.1207 7.63777 12.9158L7.40743 14.1118ZM6.76244 11.3211V11.0997C6.76244 10.701 6.57816 10.4795 6.2096 10.4795C5.84104 10.4795 5.56464 10.7896 5.4725 11.3211H6.76244ZM19.8922 14.289C20.2993 14.2987 20.7048 14.2387 21.09 14.1118L21.3204 12.9158C20.9573 13.1207 20.5436 13.2278 20.1226 13.2259C19.4315 13.2259 19.109 12.9158 19.109 12.3843V12.2514H21.3665C21.4503 11.8725 21.4966 11.4869 21.5047 11.0997C21.5047 10.0365 20.9057 9.37209 19.9383 9.37209C18.8326 9.37209 17.9573 10.5681 17.9573 12.1628C17.9573 13.5803 18.6023 14.289 19.8922 14.289ZM20.4451 11.0997V11.3211H19.1551C19.2473 10.7896 19.5237 10.4795 19.8922 10.4795C20.2608 10.4795 20.4451 10.701 20.4451 11.0997ZM37.0762 14.1118C36.6902 14.2354 36.2852 14.2953 35.8784 14.289C34.5885 14.289 33.9435 13.5803 33.9435 12.1628C33.9435 10.5681 34.8188 9.37209 35.9706 9.37209C36.938 9.37209 37.5369 10.0365 37.5369 11.0997C37.5289 11.4869 37.4826 11.8725 37.3987 12.2514H35.1413V12.3843C35.1413 12.9158 35.4638 13.2259 36.1548 13.2259C36.5758 13.2278 36.9896 13.1207 37.3526 12.9158L37.0762 14.1118ZM36.4313 11.3211V11.0997C36.4313 10.701 36.247 10.4795 35.8784 10.4795C35.5099 10.4795 35.2334 10.7896 35.1413 11.3211H36.4313ZM3.07685 9.37211C3.41865 9.37327 3.75346 9.46525 4.04431 9.63789L4.32073 8.48617C3.90752 8.28595 3.44662 8.19426 2.9847 8.22039C2.01724 8.22039 1.04979 8.66336 1.04979 10.2137C1.04979 11.1485 1.60424 11.4493 2.08071 11.7078C2.43966 11.9025 2.75435 12.0732 2.75435 12.4729C2.75435 13.093 2.20152 13.1816 1.83296 13.1816C1.44746 13.1867 1.07238 13.0613 0.773368 12.8273L0.496948 14.0233C0.913366 14.2193 1.36941 14.3251 1.83296 14.3333C2.84649 14.3333 3.95217 13.8904 3.95217 12.2514C3.95217 11.2025 3.35479 10.8832 2.86732 10.6226C2.53136 10.443 2.2476 10.2914 2.2476 9.94796C2.2476 9.4607 2.61615 9.37211 3.07685 9.37211ZM10.7705 14.1119C10.448 14.2342 10.1036 14.2944 9.75694 14.289C8.74341 14.289 8.14451 13.3145 8.14451 12.1628C8.14451 10.6124 9.0659 9.41639 10.3558 9.41639C10.7285 9.44325 11.0904 9.54915 11.4154 9.72647L11.139 10.8339C10.9171 10.6621 10.6408 10.5683 10.3558 10.5681C9.75694 10.5681 9.29625 11.0997 9.29625 12.0742C9.29625 12.6501 9.61873 13.093 10.1255 13.093C10.4054 13.109 10.6823 13.0307 10.9087 12.8715L10.7705 14.1119ZM14.9168 14.1562C14.9628 13.7132 15.0089 13.3145 15.055 12.9159L15.6078 9.50501H14.41L14.0875 11.6756C13.9954 12.3843 13.7189 12.9602 13.2122 12.9602C12.8897 13.0045 12.7515 12.6944 12.7515 12.4286C12.7595 12.1901 12.7903 11.9529 12.8436 11.7199L13.1661 9.54931H11.9222L11.5997 11.7199C11.531 12.0403 11.5001 12.3672 11.5076 12.6944C11.5076 13.5803 11.8762 14.2891 12.5672 14.2891C12.855 14.2808 13.1341 14.1927 13.3711 14.0356C13.6081 13.8784 13.7929 13.6588 13.9032 13.4031L13.8111 14.1562H14.9168ZM38.2279 14.1118H38.0437V13.3145H37.7672V13.1373H38.5044V13.3145H38.2279V14.1118ZM39.2875 14.1118H39.4718V13.1373H39.1954L39.0572 13.8904L38.8729 13.1373H38.5965V14.1118H38.7808V13.3145L38.9651 14.1118H39.1493L39.2875 13.3145V14.1118Z" fill="#6F6EFF"/>
</svg>
