<svg width="40" height="15" viewBox="0 0 40 15" fill="none" xmlns="http://www.w3.org/2000/svg">
<path fill-rule="evenodd" clip-rule="evenodd" d="M13.3034 4.56002H15.2623C15.2553 4.54853 15.2494 4.53792 15.2439 4.52806C15.2135 4.47336 15.1958 4.44152 15.08 4.40967C14.4112 3.38498 13.426 2.52433 12.2243 1.9149C11.0225 1.30547 9.64697 0.968898 8.23686 0.939273C6.82676 0.909656 5.43221 1.18804 4.19446 1.74623C2.95671 2.30442 1.91972 3.12258 1.18853 4.11787C0.457327 5.11315 0.0578873 6.2502 0.0306657 7.41385C0.00344416 8.5775 0.349411 9.72642 1.03352 10.7443C1.71762 11.7621 2.71557 12.6127 3.92629 13.2098C5.13701 13.807 6.51749 14.1296 7.92793 14.1449C9.06894 14.1653 10.2017 13.9809 11.2479 13.6045C12.294 13.2281 13.2285 12.6686 13.9867 11.9648C14.0417 11.8989 14.1174 11.8466 14.2057 11.8135C14.294 11.7804 14.3915 11.7677 14.4878 11.7769H38.1308C38.2219 11.7769 38.2674 11.7769 38.2674 11.7017C38.3108 11.5227 38.3077 11.3381 38.2583 11.1602C38.2089 10.9822 38.1144 10.8149 37.981 10.6693C37.8475 10.5237 37.6782 10.4031 37.4842 10.3154C37.2901 10.2277 37.0758 10.175 36.8552 10.1606H13.6678C13.5677 10.1587 13.4687 10.1785 13.3807 10.2181C13.2928 10.2576 13.219 10.3156 13.1667 10.3861C12.536 11.1884 11.6358 11.8218 10.5761 12.2089C9.51633 12.5961 8.34291 12.7202 7.19906 12.5662C6.37807 12.471 5.58889 12.2398 4.87895 11.8865C4.16902 11.5332 3.55298 11.0651 3.06788 10.5103C2.58278 9.95561 2.23865 9.32566 2.05613 8.65837C1.87362 7.99108 1.85649 7.30023 2.00581 6.62735C2.25906 5.5223 2.94402 4.51612 3.9559 3.76266C4.96778 3.0092 6.25092 2.54994 7.60907 2.45511C8.64358 2.37807 9.68475 2.52068 10.6336 2.86937C11.5825 3.21807 12.4074 3.76125 13.0301 4.44726C13.0609 4.48312 13.102 4.51216 13.1497 4.53183C13.1973 4.55149 13.2501 4.56118 13.3034 4.56002ZM5.09779 7.09706C5.08925 7.04068 5.0807 6.98431 5.14903 6.92794C5.18064 6.94265 5.2062 6.96483 5.22244 6.99162C5.23867 7.0184 5.24484 7.04859 5.24015 7.07828C5.49954 7.68979 5.72878 8.32617 5.9524 8.94697C6.00369 9.08935 6.05468 9.23091 6.10567 9.37116C6.15123 9.5215 6.24234 9.55909 6.42456 9.55909H7.24454C7.3812 9.55909 7.47233 9.5215 7.51789 9.37116C7.65449 8.99545 7.80246 8.61035 7.95045 8.22524L7.95064 8.22473L7.95067 8.22467C8.09871 7.8394 8.24675 7.45414 8.38341 7.07828C8.39892 7.06548 8.40387 7.0396 8.40905 7.01252C8.41908 6.96009 8.42997 6.90315 8.52009 6.92794C8.58766 6.95581 8.58006 7.00436 8.57162 7.05825C8.56868 7.07702 8.56564 7.09645 8.56564 7.11587V9.37116C8.56564 9.55909 8.65674 9.59668 8.83896 9.59668H10.1145C10.2967 9.59668 10.3423 9.55909 10.3423 9.40874V5.23647C10.3423 5.04853 10.2967 5.04853 10.1145 5.04853H8.7023C8.45003 5.02577 8.19672 5.08302 7.9937 5.20866C7.79069 5.33429 7.65317 5.51892 7.609 5.72512C7.49511 6.02582 7.39261 6.31713 7.29011 6.60843L7.29001 6.60873C7.18754 6.89994 7.08507 7.19115 6.97122 7.49176C6.95638 7.51625 6.95121 7.54473 6.94626 7.57199C6.93601 7.62843 6.92671 7.67969 6.83456 7.67969C6.74242 7.67969 6.73311 7.62843 6.72287 7.57199C6.71792 7.54473 6.71275 7.51625 6.69791 7.49176C6.58402 7.19105 6.48152 6.89035 6.37902 6.58964C6.27652 6.28894 6.17402 5.98823 6.06013 5.68753C6.00766 5.5092 5.8856 5.35004 5.71274 5.23458C5.53988 5.11911 5.32581 5.05374 5.10349 5.04853H3.55462C3.3724 5.04853 3.32684 5.12371 3.32684 5.23647V9.40874C3.32684 9.55909 3.41795 9.59668 3.55462 9.59668H4.83014C5.05792 9.59668 5.10349 9.5215 5.10349 9.37116V7.15346C5.10349 7.13466 5.10064 7.11586 5.09779 7.09706ZM18.9522 9.55921H17.1756C17.1157 9.56568 17.055 9.55401 17.0047 9.52636C16.9545 9.49871 16.9181 9.45697 16.9023 9.40887C16.6745 9.03299 16.4467 8.69471 16.2189 8.35642C16.1889 8.27975 16.1262 8.21466 16.0424 8.1732C15.9587 8.13174 15.8595 8.11671 15.7634 8.13089C15.4968 8.13089 15.372 8.13089 15.3137 8.19314C15.2623 8.2479 15.2623 8.35085 15.2623 8.54435V9.40887C15.2623 9.55921 15.2167 9.5968 15.0345 9.5968H13.7134C13.5768 9.5968 13.4857 9.55921 13.4857 9.40887V7.26638C13.4857 7.15362 13.5312 7.11603 13.6679 7.11603H18.6333C18.8155 7.11603 18.8155 7.1912 18.7244 7.26638C18.6514 7.41959 18.541 7.55874 18.3999 7.67515C18.2588 7.79156 18.0901 7.88272 17.9045 7.94296C17.6767 8.01813 17.7222 8.0933 17.8133 8.24366L17.8135 8.24382C18.1323 8.61964 18.4511 8.99546 18.7244 9.37128C18.7424 9.38116 18.7596 9.39039 18.7759 9.39914L18.7759 9.39917C18.8835 9.457 18.9522 9.49394 18.9522 9.55921ZM17.13 5.04864H15.3078C14.7156 5.04864 14.0778 5.04864 13.4401 5.01105C13.2578 5.01105 13.2123 5.04864 13.2578 5.19899C13.3992 5.63519 13.6965 6.02618 14.1108 6.32114C14.5251 6.61609 15.0375 6.80136 15.5811 6.85286C16.1541 6.89584 16.7419 6.88967 17.3276 6.88353C17.7664 6.87893 18.204 6.87435 18.6333 6.89044C18.861 6.92803 18.9522 6.85286 18.9522 6.66492C18.9655 6.45921 18.9286 6.25338 18.8435 6.05972C18.7584 5.86605 18.6269 5.6885 18.4568 5.53767C18.2868 5.38683 18.0817 5.2658 17.8537 5.18178C17.6257 5.09776 17.3796 5.05248 17.13 5.04864ZM11.0256 7.30396V5.27423C11.0256 5.12388 11.0711 5.04871 11.2989 5.04871H12.5745C12.7111 5.04871 12.8022 5.04871 12.8022 5.19906V9.40885C12.8022 9.55921 12.7111 9.55921 12.5745 9.55921H11.2534C11.0711 9.55921 11.0256 9.52162 11.0256 9.37127V7.30396ZM29.4754 6.89046V8.09326C29.4754 8.46914 29.4754 8.88261 29.4298 9.25849C29.4298 9.44642 29.5209 9.48401 29.7031 9.48401H31.1153C31.4051 9.48401 31.5413 9.48401 31.5985 9.4168C31.6492 9.35724 31.6378 9.24489 31.6164 9.03296C31.6164 8.9202 31.5709 8.88261 31.4342 8.88261H30.5231C30.2953 8.88261 30.2953 8.80743 30.2953 8.65708C30.3085 8.61373 30.3065 8.56726 30.3046 8.52397C30.3 8.41711 30.2962 8.32963 30.5231 8.35638H31.1153C31.1353 8.35638 31.1531 8.35819 31.1691 8.35982C31.2264 8.36563 31.262 8.36925 31.2975 8.28121C31.4342 7.90533 31.2975 7.79256 30.842 7.79256H30.6142C30.3865 7.83015 30.2953 7.75498 30.2953 7.52945C30.2953 7.34151 30.3409 7.26634 30.5687 7.30392H31.0698C31.3363 7.30392 31.4611 7.30392 31.5195 7.24167C31.5709 7.18691 31.5709 7.08396 31.5709 6.89046C31.5709 6.74011 31.5708 6.70252 31.3886 6.70252H29.7031C29.5209 6.70252 29.4754 6.74011 29.4754 6.89046ZM21.1388 6.70248C21.4121 6.62731 21.5488 6.77765 21.6399 7.00318C21.9133 7.75493 22.2322 8.50669 22.551 9.22085C22.6421 9.40879 22.5966 9.44638 22.3688 9.44638H22.2777C21.8221 9.44638 21.7766 9.44638 21.6399 9.0705C21.5944 8.92015 21.5033 8.88256 21.3666 8.88256H21.1388C20.8455 8.88256 20.7095 8.88256 20.6184 8.94645C20.5397 9.00161 20.4944 9.10439 20.41 9.29589L20.41 9.29595L20.4099 9.29602C20.3644 9.40879 20.3188 9.44638 20.1822 9.44638C20.1365 9.44638 20.0939 9.44654 20.0543 9.4467C19.7772 9.44779 19.6421 9.44832 19.6029 9.38727C19.5656 9.32922 19.6149 9.21548 19.7111 8.99359L19.7266 8.95774L19.7267 8.95762C20 8.31868 20.2733 7.67972 20.5011 7.04077C20.5612 6.89197 20.5948 6.80863 20.6563 6.76194C20.7347 6.70248 20.8581 6.70248 21.1388 6.70248ZM22.9192 7.27857C22.7561 7.4872 22.6752 7.73236 22.6876 7.98043C22.6712 8.24617 22.742 8.51065 22.8926 8.74594C23.0432 8.98123 23.268 9.17859 23.5433 9.31719C23.8186 9.45578 24.1342 9.53047 24.4566 9.53337C24.7791 9.53626 25.0965 9.46724 25.3754 9.33361C25.8309 9.10808 25.8309 9.10808 25.5576 8.76979C25.4209 8.61943 25.3298 8.61943 25.1476 8.7322C24.5554 9.07049 23.8721 8.95773 23.6443 8.46908C23.5481 8.31793 23.514 8.14515 23.5469 7.97663C23.5798 7.80812 23.6781 7.65294 23.8269 7.53438C23.9757 7.41582 24.1671 7.34026 24.3724 7.31902C24.5776 7.29779 24.7857 7.33203 24.9654 7.41661C25.1505 7.49299 25.2416 7.53057 25.3163 7.50963C25.3886 7.48935 25.4455 7.4142 25.5576 7.26625C25.5624 7.23775 25.5784 7.21133 25.6032 7.19107C25.6943 7.07831 25.6943 7.04072 25.5576 6.96554C25.2835 6.7872 24.9527 6.67812 24.6051 6.65144C24.2575 6.62476 23.908 6.68163 23.5987 6.81519C23.3197 6.90808 23.0823 7.06994 22.9192 7.27857ZM27.7443 6.66493C28.1184 6.65917 28.4852 6.75128 28.7921 6.92803C28.9287 7.00321 28.9743 7.07839 28.8376 7.19115C28.7921 7.22873 28.7465 7.26632 28.7465 7.3039C28.6554 7.52943 28.5187 7.56702 28.2454 7.41667C28.0675 7.32105 27.8581 7.27331 27.6459 7.28005C27.4338 7.28678 27.2294 7.34764 27.061 7.45426C26.9138 7.57429 26.8134 7.72789 26.7729 7.89534C26.7323 8.06279 26.7533 8.23641 26.8332 8.39393C26.8895 8.50982 26.9786 8.61293 27.0931 8.69467C27.2075 8.7764 27.3439 8.83439 27.491 8.86381C27.638 8.89323 27.7915 8.89322 27.9386 8.8638C28.0857 8.83436 28.2221 8.77636 28.3365 8.69462C28.5643 8.58186 28.6554 8.58187 28.7921 8.76979C29.0198 9.10808 29.0198 9.10808 28.6554 9.29602C28.25 9.49591 27.7691 9.5643 27.306 9.48788C26.8429 9.41147 26.4309 9.19571 26.1499 8.88256C25.9077 8.56085 25.8247 8.17468 25.918 7.80389C26.0113 7.4331 26.2737 7.10607 26.651 6.89045C26.9908 6.74964 27.3641 6.67263 27.7443 6.66493ZM38.8596 6.62737H37.493C37.1263 6.63677 36.7594 6.61154 36.3997 6.55219C36.1161 6.55219 35.9797 6.55219 35.914 6.62037C35.853 6.68365 35.853 6.80564 35.853 7.04084V7.07843C35.853 7.1912 35.8986 7.22879 36.0352 7.22879H36.7641C36.9463 7.22879 36.9919 7.26638 36.9919 7.41673V9.10823C36.9919 9.3721 36.9919 9.51248 37.0619 9.58717C37.1416 9.67206 37.3117 9.67206 37.6752 9.67206C37.8574 9.67206 37.903 9.63447 37.903 9.48412V7.71744C37.903 7.50634 37.903 7.39403 37.959 7.33428C38.0227 7.26638 38.1588 7.26638 38.4496 7.26638C38.787 7.26638 38.9332 7.26638 38.996 7.19402C39.044 7.13872 39.0434 7.04116 39.0422 6.86904V6.86828C39.042 6.84014 39.0418 6.80999 39.0418 6.77772C39.0418 6.66496 38.9963 6.62737 38.8596 6.62737ZM32.8028 6.6941L32.8042 6.69408C33.4065 6.68575 34.002 6.67752 34.5774 6.7025C34.8643 6.7362 35.1273 6.85304 35.3193 7.03209C35.5112 7.21115 35.6197 7.44074 35.6252 7.67976C35.6252 7.8301 35.5797 7.90528 35.3519 7.90528C35.059 7.88916 34.7662 7.89376 34.4733 7.89836C34.0829 7.90451 33.6924 7.91065 33.3019 7.86769C32.9471 7.82228 32.619 7.68489 32.3651 7.47542C32.1113 7.26594 31.9447 6.99524 31.8897 6.7025C32.1946 6.7025 32.4995 6.69829 32.8028 6.6941ZM35.3518 8.01813H33.894C33.4385 8.01813 32.983 8.01813 32.3907 8.05571C32.163 8.05571 32.1174 8.13089 32.1174 8.31882V9.18333C32.1174 9.34165 32.1174 9.42587 32.1595 9.47068C32.2072 9.52161 32.3093 9.52161 32.5274 9.52161C32.9374 9.52161 32.9374 9.52161 32.9374 9.18333V8.84504C32.9374 8.6947 32.983 8.65711 33.1652 8.65711H34.5318C34.7122 8.6513 34.8884 8.61091 35.0465 8.53915C35.2047 8.46738 35.3404 8.36621 35.4429 8.24365C35.4575 8.21955 35.4768 8.19932 35.4948 8.18047C35.5328 8.14051 35.565 8.10679 35.534 8.05571C35.534 7.99672 35.4499 8.00717 35.3916 8.01441C35.3756 8.01639 35.3616 8.01813 35.3518 8.01813Z" fill="#6F6EFF"/>
</svg>
