<svg xmlns="http://www.w3.org/2000/svg" width="29.736" height="31.104" viewBox="0 0 29.736 31.104">
  <path id="Path_13" data-name="Path 13" d="M469.759,1136.6a1.576,1.576,0,0,1-.527,1.9l-7.061,4.617a3.079,3.079,0,0,1-3.76-.346,21.25,21.25,0,0,0-7.3-4.3,7.331,7.331,0,0,1-2.872-1.555c-.593-.552-1.506-1.136-2.107-1.638a23.717,23.717,0,0,0-5.184-3.316c-.831-.362-.987-.922-.576-1.745a2.582,2.582,0,0,1,1.2-1.07,4.721,4.721,0,0,1,2.979.049c.584.115,3.02,1.679,4.155,2.239.979.485,1.234-.411,1.242-1.5a5.046,5.046,0,0,0-.321-1.555c-1.81-4.427-3.728-8.813-5.645-13.249a1.8,1.8,0,0,1,.749-2.419,1.881,1.881,0,0,1,2.477.7c.79,1.226,1.53,2.444,2.32,3.719.691,1.16,1.44,2.271,2.131,3.432l.881,1.4a24.124,24.124,0,0,1,12.895.667,1.245,1.245,0,0,1,.782.79,30.05,30.05,0,0,1,2.312,9.365,20.382,20.382,0,0,0,.609,2.4Zm0,0" transform="translate(-440.154 -1112.501)" fill="#14141c"/>
</svg>
