<svg width="28" height="28" viewBox="0 0 28 28" fill="none" xmlns="http://www.w3.org/2000/svg">
<path fill-rule="evenodd" clip-rule="evenodd" d="M14 28C21.732 28 28 21.732 28 14C28 6.26801 21.732 0 14 0C6.26801 0 0 6.26801 0 14C0 21.732 6.26801 28 14 28ZM10.4383 10.2058C10.1669 10.2026 9.89608 10.2307 9.63128 10.2896L9.56181 10.3056C9.4009 10.3454 9.24302 10.3964 9.0893 10.4581C9.00279 10.4933 8.92329 10.5322 8.84625 10.5699L8.83532 10.5753C8.75541 10.6172 8.6911 10.6834 8.65194 10.7641C8.61277 10.8448 8.60075 10.9357 8.61762 11.0236C8.61762 11.0378 8.62272 11.0576 8.6288 11.0812C8.63094 11.0894 8.6332 11.0982 8.6354 11.1074C8.68282 11.2967 8.75996 11.6236 8.75996 11.6236C8.75996 11.6236 8.75992 11.6453 8.76585 11.6546C8.77294 11.7137 8.76226 11.7736 8.73515 11.8268C8.70935 11.8774 8.66973 11.9198 8.62089 11.9493C8.62865 11.9449 8.63673 11.9408 8.64484 11.9368C8.31652 12.1181 8.01016 12.336 7.73183 12.5863C7.68693 12.6272 7.63071 12.654 7.57036 12.6631C7.51001 12.6722 7.44837 12.6632 7.39318 12.6374C7.38674 12.6374 7.38061 12.6334 7.37482 12.6295L7.37481 12.6295C7.37148 12.6273 7.36826 12.6252 7.36517 12.624L6.9062 12.3466C6.88842 12.3349 6.86892 12.3232 6.84521 12.3098C6.7663 12.2674 6.67595 12.2506 6.58688 12.2619C6.49782 12.2732 6.4146 12.3119 6.34903 12.3726C6.1553 12.5607 5.98477 12.7708 5.84096 12.9986L5.83498 13.0083C5.82506 13.0245 5.81491 13.0411 5.80364 13.0572C5.71839 13.1985 5.64314 13.3455 5.57839 13.4971C5.54113 13.5867 5.50896 13.6731 5.48102 13.7577C5.45545 13.8436 5.45802 13.9352 5.48846 14.0195C5.51889 14.1039 5.57557 14.1764 5.65034 14.2269C5.66812 14.2386 5.69017 14.2528 5.7198 14.2704C5.88917 14.3718 6.17629 14.5486 6.17629 14.5486C6.17629 14.5486 6.19404 14.5603 6.2042 14.5679C6.25183 14.6047 6.28735 14.6548 6.30633 14.7116C6.32532 14.7684 6.3269 14.8295 6.31088 14.8872C6.2147 15.236 6.15794 15.5942 6.14156 15.9554C6.13863 16.0151 6.11788 16.0725 6.08202 16.1205C6.04615 16.1685 5.99674 16.205 5.93998 16.2253C5.92998 16.2298 5.91947 16.2332 5.90866 16.2353L5.3887 16.3585C5.37846 16.3616 5.36705 16.3642 5.35446 16.3671L5.35441 16.3671C5.34308 16.3697 5.33081 16.3726 5.31758 16.3761C5.2311 16.4007 5.1548 16.4518 5.09968 16.5222C5.04456 16.5925 5.01354 16.6784 5.01109 16.7673C5.00794 17.035 5.03633 17.3022 5.09575 17.5634L5.11177 17.632C5.15168 17.7916 5.20383 17.948 5.26766 18.0997C5.30492 18.1902 5.34473 18.2739 5.38622 18.351C5.42885 18.4297 5.49575 18.493 5.57725 18.5314C5.65876 18.5699 5.75053 18.5815 5.8392 18.5647L5.92396 18.5471C6.11365 18.5001 6.4464 18.4239 6.4464 18.4239L6.47772 18.4181C6.53773 18.4113 6.59843 18.4219 6.65242 18.4487C6.70641 18.4755 6.75136 18.5172 6.78174 18.5688C6.96907 18.8948 7.19384 19.1983 7.45147 19.4733L7.44399 19.4659C7.43823 19.4603 7.43244 19.4547 7.42684 19.4487C7.46642 19.4926 7.49224 19.5469 7.50121 19.6051C7.51041 19.6648 7.50135 19.7259 7.47526 19.7805C7.4706 19.7901 7.46529 19.7993 7.45924 19.8081L7.18055 20.2622C7.17166 20.2754 7.1628 20.291 7.1532 20.3079L7.14333 20.3251C7.09983 20.403 7.0825 20.4926 7.09392 20.5808C7.10534 20.6691 7.14488 20.7515 7.2068 20.8161C7.39743 21.0072 7.60975 21.1758 7.83944 21.3188L7.84936 21.3248L7.84943 21.3248C7.86578 21.3346 7.8825 21.3446 7.89867 21.3557C8.04154 21.4395 8.19011 21.5134 8.34327 21.5769C8.43388 21.6137 8.52109 21.6456 8.60831 21.675C8.69512 21.7 8.78769 21.6973 8.87284 21.6672C8.958 21.6371 9.03144 21.5811 9.08258 21.5073C9.09444 21.4897 9.10791 21.468 9.12569 21.4387L9.40686 20.987C9.41326 20.9781 9.41919 20.9689 9.42464 20.9594C9.46218 20.9126 9.51277 20.8777 9.57008 20.8589C9.62489 20.841 9.68356 20.8386 9.73959 20.8519C9.72459 20.848 9.70944 20.8433 9.69431 20.8386L9.68079 20.8344C10.0534 20.9416 10.4376 21.0044 10.8253 21.0214C10.8859 21.0244 10.9441 21.045 10.993 21.0804C11.0419 21.1158 11.0793 21.1647 11.1005 21.2208C11.1039 21.2304 11.1065 21.2402 11.1081 21.2502L11.2344 21.7646C11.238 21.7765 11.241 21.791 11.2442 21.8062L11.2442 21.8063C11.2454 21.8122 11.2467 21.8183 11.248 21.8244C11.2488 21.8279 11.2496 21.8315 11.2504 21.835C11.2755 21.9203 11.3273 21.9954 11.3984 22.0496C11.4695 22.1038 11.5562 22.1343 11.6459 22.1367C11.9164 22.1398 12.1864 22.1116 12.4503 22.0528L12.5198 22.0369C12.6807 21.9965 12.8386 21.945 12.9923 21.8828C13.0829 21.8459 13.1685 21.8065 13.2464 21.7655C13.3263 21.7236 13.3905 21.6573 13.4297 21.5767C13.4688 21.496 13.4809 21.4051 13.464 21.3172C13.464 21.3033 13.4591 21.2861 13.4531 21.2647C13.4504 21.2551 13.4474 21.2448 13.4446 21.2334C13.3971 21.0457 13.32 20.7172 13.32 20.7172C13.32 20.7172 13.32 20.6979 13.3141 20.6862C13.3072 20.6268 13.3179 20.5668 13.345 20.5133C13.3721 20.4599 13.4144 20.4154 13.4666 20.3854C13.7836 20.2067 14.0793 19.9935 14.3481 19.7495C14.393 19.7086 14.4492 19.6818 14.5096 19.6727C14.5699 19.6636 14.6316 19.6725 14.6868 19.6984C14.6967 19.7015 14.7061 19.706 14.7148 19.7118L15.1712 19.9874C15.1848 19.9964 15.201 20.0054 15.2185 20.0152L15.2347 20.0243C15.3135 20.0674 15.4039 20.0844 15.4932 20.0731C15.5824 20.0618 15.6657 20.0227 15.7309 19.9614C15.9247 19.774 16.0952 19.5645 16.239 19.3372C16.2509 19.3171 16.2627 19.2979 16.2771 19.2786C16.3623 19.1369 16.4376 18.9897 16.5024 18.8379C16.5396 18.7482 16.5692 18.6619 16.5972 18.5756C16.6226 18.4897 16.62 18.398 16.5895 18.3138C16.5591 18.2295 16.5025 18.1568 16.4279 18.1063C16.415 18.0978 16.399 18.0884 16.3799 18.0772L16.3567 18.0636C16.1874 17.9639 15.9002 17.7855 15.9002 17.7855C15.9002 17.7855 15.8808 17.7762 15.8723 17.7695C15.8251 17.7324 15.7898 17.6823 15.7708 17.6256C15.7519 17.5689 15.7501 17.508 15.7657 17.4503C15.8626 17.1005 15.9193 16.741 15.935 16.3786C15.9386 16.3198 15.9595 16.2633 15.9949 16.216C16.0304 16.1687 16.0791 16.1326 16.1349 16.1121C16.145 16.1085 16.1555 16.1059 16.1662 16.1046L16.6862 15.979L16.7573 15.963C16.8435 15.9379 16.9194 15.8866 16.9744 15.8163C17.0294 15.7461 17.0607 15.6605 17.0638 15.5717C17.067 15.304 17.0386 15.0369 16.9791 14.7757L16.963 14.707C16.9226 14.5478 16.8711 14.3916 16.8089 14.2394C16.7787 14.1668 16.7452 14.0991 16.7129 14.0337L16.7129 14.0336L16.6904 13.988C16.6481 13.9091 16.5814 13.8457 16.5 13.807C16.4187 13.7683 16.3269 13.7562 16.2382 13.7727L16.1535 13.7903C15.9638 13.8372 15.6319 13.9135 15.6319 13.9135L15.6005 13.9194C15.5412 13.9263 15.4811 13.916 15.4275 13.89C15.3739 13.864 15.329 13.8233 15.2982 13.7727C15.112 13.4488 14.8883 13.1473 14.6318 12.8745C14.6366 12.879 14.6412 12.8837 14.6457 12.8886C14.6488 12.8923 14.6521 12.896 14.6554 12.8996C14.6523 12.8959 14.649 12.8922 14.6457 12.8886C14.6105 12.8466 14.5874 12.796 14.579 12.7419C14.5698 12.683 14.5785 12.6227 14.6039 12.5687C14.608 12.5588 14.6134 12.5495 14.6199 12.541L14.8985 12.0869C14.9076 12.0734 14.9167 12.0574 14.9266 12.0401L14.9266 12.0401L14.9358 12.024C14.9793 11.9461 14.9965 11.8566 14.9851 11.7683C14.9737 11.68 14.9341 11.5976 14.8722 11.5331C14.6817 11.3418 14.4695 11.1731 14.2397 11.0303L14.1779 10.9934C14.0356 10.9091 13.8877 10.8346 13.735 10.7705C13.6444 10.7337 13.5546 10.7018 13.4682 10.675C13.3817 10.6494 13.2892 10.6519 13.2042 10.6821C13.1192 10.7122 13.0461 10.7685 12.9957 10.8426L12.9921 10.848C12.9807 10.8649 12.966 10.8866 12.95 10.913L12.6713 11.3671C12.6652 11.376 12.6584 11.3844 12.6511 11.3923C12.6139 11.4394 12.5635 11.4745 12.5062 11.4933C12.449 11.512 12.3875 11.5136 12.3293 11.4979C11.977 11.4017 11.6147 11.3454 11.2496 11.3302C11.189 11.3272 11.1307 11.3067 11.0818 11.2713C11.0329 11.2359 10.9956 11.187 10.9744 11.1309C10.971 11.1213 10.9684 11.1115 10.9667 11.1015L10.8405 10.587C10.8369 10.5751 10.8339 10.5606 10.8307 10.5453L10.8307 10.5453L10.8307 10.5452C10.8287 10.5359 10.8267 10.5262 10.8245 10.5167C10.8049 10.4302 10.7563 10.3528 10.6867 10.297C10.6171 10.2412 10.5305 10.2103 10.4409 10.2092L10.4383 10.2058ZM11.1581 12.3843C11.9578 12.4069 12.7304 12.6758 13.3683 13.1535C14.0231 13.639 14.5062 14.3167 14.7488 15.0899C14.9913 15.8632 14.9809 16.6925 14.719 17.4595C14.4425 18.252 13.9129 18.9341 13.2102 19.4027C12.5075 19.8712 11.6698 20.1009 10.8236 20.057C9.87083 19.9969 8.97324 19.5942 8.29975 18.9247C7.62626 18.2552 7.22334 17.3651 7.16701 16.4221C7.14455 15.9067 7.22655 15.3919 7.40807 14.9083C7.58958 14.4246 7.86696 13.9818 8.22398 13.6057C8.581 13.2296 9.01043 12.9281 9.48697 12.7186C9.96351 12.5091 10.4775 12.396 10.9989 12.386H11.1589L11.1581 12.3843ZM18.6913 6.90439C18.8446 6.86972 19.0015 6.8529 19.1588 6.85417L19.1529 6.8558C19.2047 6.85643 19.2547 6.87431 19.2949 6.90654C19.3352 6.93877 19.3633 6.98349 19.3747 7.03347C19.3759 7.03872 19.3774 7.04387 19.3788 7.04885C19.3815 7.05815 19.384 7.06684 19.384 7.07448L19.4577 7.37284C19.4586 7.37854 19.46 7.38406 19.462 7.38951C19.4743 7.42202 19.4959 7.45029 19.5242 7.47083C19.5525 7.49136 19.5861 7.50332 19.6212 7.50519C19.8328 7.51398 20.0428 7.54656 20.247 7.60236C20.2807 7.6115 20.3164 7.61059 20.3495 7.5997C20.3827 7.58882 20.4118 7.56845 20.4332 7.5412C20.4376 7.53647 20.4416 7.53147 20.4451 7.52616L20.6069 7.26299C20.6171 7.24623 20.6264 7.23203 20.6332 7.22197C20.6627 7.17948 20.7051 7.14739 20.7542 7.13023C20.8034 7.11306 20.8567 7.1117 20.9067 7.12644C20.9575 7.14236 21.0091 7.15999 21.0616 7.18178C21.1492 7.21902 21.234 7.26207 21.3156 7.31076L21.3512 7.33254C21.4844 7.41537 21.6075 7.51324 21.7179 7.62415C21.7535 7.66165 21.7761 7.70937 21.7827 7.76039C21.7892 7.81141 21.7793 7.86309 21.7543 7.90819C21.7505 7.9142 21.7471 7.92007 21.7438 7.92561C21.7398 7.93242 21.736 7.93875 21.7323 7.94429L21.5705 8.20736C21.5668 8.21225 21.5636 8.21764 21.5612 8.22332C21.5464 8.25461 21.5413 8.28949 21.5466 8.32366C21.5513 8.35421 21.5641 8.38287 21.5837 8.40681C21.7297 8.56308 21.8571 8.73537 21.9634 8.92037C21.9814 8.94954 22.0075 8.97302 22.0386 8.98788C22.0697 9.00274 22.1045 9.00833 22.1388 9.00414H22.1574C22.1574 9.00414 22.3496 8.95977 22.4597 8.93295L22.5063 8.92293C22.5577 8.9133 22.6111 8.92021 22.6583 8.94267C22.7055 8.96513 22.7442 9.00191 22.7688 9.04771L22.775 9.06031C22.7959 9.10321 22.8173 9.14708 22.8374 9.19439C22.8734 9.28242 22.9031 9.37286 22.9263 9.46503L22.9357 9.50441C22.9711 9.65577 22.9883 9.81074 22.9872 9.96611C22.9856 10.0176 22.9677 10.0672 22.936 10.108C22.9042 10.1487 22.8602 10.1786 22.8103 10.1932L22.7688 10.2024L22.4673 10.2753C22.4609 10.2761 22.4547 10.2775 22.4487 10.2795C22.4164 10.2914 22.3882 10.3123 22.3676 10.3396C22.347 10.367 22.3349 10.3996 22.3327 10.4336C22.3236 10.6436 22.2907 10.8518 22.2345 11.0545C22.2256 11.0878 22.2267 11.123 22.2377 11.1558C22.2487 11.1885 22.269 11.2174 22.2963 11.2389C22.3014 11.2423 22.3123 11.2481 22.3123 11.2481C22.3123 11.2481 22.4783 11.3512 22.5765 11.409L22.6181 11.4341C22.661 11.4635 22.6934 11.5056 22.7107 11.5543C22.7281 11.6031 22.7294 11.656 22.7145 11.7055C22.6985 11.755 22.6816 11.8053 22.6596 11.8572C22.6219 11.9438 22.5782 12.0278 22.5291 12.1086C22.5206 12.1203 22.5139 12.1313 22.5071 12.143C22.4236 12.2744 22.3248 12.3956 22.2125 12.504C22.1746 12.5392 22.1263 12.5617 22.0748 12.5682C22.0232 12.5746 21.971 12.5649 21.9254 12.5401L21.8889 12.5184L21.6239 12.3583C21.6189 12.355 21.6135 12.3525 21.6079 12.3507C21.5761 12.3361 21.5406 12.3311 21.5059 12.3363C21.4713 12.3415 21.4389 12.3567 21.413 12.3801C21.2581 12.5213 21.0877 12.6451 20.9049 12.7488C20.8754 12.7667 20.8517 12.7927 20.8367 12.8236C20.8217 12.8545 20.816 12.889 20.8203 12.923V12.9415C20.8203 12.9415 20.8651 13.1316 20.8922 13.2406C20.8938 13.247 20.8956 13.2529 20.8971 13.2584C20.9005 13.27 20.9033 13.2795 20.9033 13.2875C20.913 13.3385 20.906 13.3911 20.8833 13.4379C20.8606 13.4846 20.8233 13.5229 20.7771 13.5472C20.7296 13.5707 20.6805 13.5933 20.628 13.6151C20.539 13.6513 20.4476 13.6813 20.3545 13.7048L20.3147 13.714C20.1616 13.7485 20.0051 13.7651 19.8482 13.7634C19.7962 13.7622 19.7459 13.7446 19.7047 13.7133C19.6634 13.682 19.6334 13.6385 19.6187 13.5892C19.6175 13.5838 19.616 13.5786 19.6145 13.5736C19.6118 13.5644 19.6093 13.5557 19.6093 13.5481L19.5365 13.2507C19.5356 13.2447 19.5342 13.2387 19.5323 13.233C19.52 13.2005 19.4983 13.1723 19.47 13.1518C19.4417 13.1313 19.4081 13.1193 19.3731 13.1174C19.1521 13.1076 18.9331 13.072 18.7206 13.0115L18.7507 13.0203C18.717 13.0115 18.6814 13.0126 18.6483 13.0234C18.6152 13.0343 18.586 13.0544 18.5643 13.0814L18.5542 13.0973L18.3915 13.3587C18.3814 13.3755 18.373 13.388 18.3662 13.3981C18.3364 13.4408 18.2938 13.4731 18.2443 13.4905C18.1949 13.5078 18.1412 13.5091 18.0909 13.4944L18.079 13.4902C18.0329 13.474 17.986 13.4575 17.9376 13.4375C17.8501 13.4005 17.7653 13.3577 17.6837 13.3093C17.6746 13.3029 17.6655 13.2975 17.6568 13.2922C17.6541 13.2907 17.6515 13.2891 17.6489 13.2875C17.5158 13.2046 17.3927 13.1068 17.2823 12.9959C17.2466 12.9585 17.2238 12.9108 17.2172 12.8598C17.2107 12.8087 17.2208 12.7569 17.2459 12.7119C17.2497 12.7059 17.2531 12.7001 17.2563 12.6946C17.2604 12.6878 17.2641 12.6815 17.2679 12.6759L17.4296 12.4128C17.4331 12.4078 17.4362 12.4024 17.4389 12.3968C17.4538 12.3654 17.4589 12.3303 17.4537 12.296C17.4484 12.2617 17.433 12.2297 17.4093 12.2041L17.4346 12.2301C17.2816 12.0685 17.1483 11.8896 17.0375 11.6972C17.0194 11.668 16.9932 11.6445 16.9619 11.6296C16.9307 11.6148 16.8957 11.6091 16.8613 11.6134H16.8427C16.8427 11.6134 16.6506 11.6578 16.5405 11.6847L16.4939 11.6947C16.4425 11.7046 16.3893 11.6979 16.3421 11.6758C16.2949 11.6536 16.2561 11.6171 16.2314 11.5715C16.2077 11.5246 16.1848 11.476 16.1628 11.424C16.1257 11.3362 16.0953 11.2458 16.0721 11.1534L16.0628 11.114C16.0277 10.9626 16.0107 10.8076 16.012 10.6523C16.0136 10.6007 16.0316 10.551 16.0635 10.5101C16.0955 10.4693 16.1397 10.4396 16.1898 10.4253L16.2314 10.4152L16.5328 10.3439C16.5393 10.3428 16.5455 10.3408 16.5514 10.3381C16.5844 10.3264 16.6131 10.3052 16.6339 10.2774C16.6547 10.2495 16.6667 10.216 16.6683 10.1814C16.6778 9.97205 16.7108 9.76436 16.7665 9.56219C16.7757 9.52886 16.7746 9.49361 16.7637 9.46083C16.7527 9.42805 16.7322 9.39921 16.7047 9.37788L16.6886 9.36704C16.6886 9.36704 16.5218 9.2648 16.4236 9.20615L16.3838 9.18099C16.3407 9.1515 16.3082 9.10921 16.2908 9.0603C16.2735 9.01138 16.2722 8.95837 16.2872 8.90871C16.3033 8.86011 16.3211 8.8098 16.3431 8.75785C16.3807 8.6712 16.4243 8.58717 16.4735 8.50644C16.482 8.49471 16.4887 8.4839 16.4955 8.47217C16.5789 8.34015 16.6779 8.21828 16.7902 8.10927C16.8283 8.07413 16.8766 8.05181 16.9283 8.04535C16.98 8.03888 17.0325 8.04861 17.0782 8.07327L17.1138 8.09506L17.3796 8.25595L17.3958 8.26433C17.4275 8.27898 17.4629 8.28397 17.4976 8.27876C17.5322 8.27354 17.5646 8.25832 17.5905 8.23498C17.7503 8.09123 17.926 7.96589 18.1142 7.86134C18.11 7.86348 18.1059 7.86565 18.102 7.86799C18.1316 7.85035 18.1554 7.82454 18.1704 7.79373C18.1855 7.76293 18.1911 7.72845 18.1867 7.69452V7.67611C18.1867 7.67611 18.1418 7.4868 18.1147 7.37703C18.1133 7.37048 18.1116 7.36412 18.1101 7.35815C18.1071 7.34657 18.1045 7.33646 18.1045 7.32927C18.0949 7.27832 18.102 7.22562 18.1246 7.17891C18.1473 7.13221 18.1845 7.09388 18.2307 7.06947C18.2773 7.04685 18.3255 7.02344 18.378 7.00166C18.467 6.96603 18.5584 6.93655 18.6515 6.91359L18.6913 6.90439ZM20.8558 8.56177C20.4862 8.28518 20.0387 8.12964 19.5755 8.11684L19.5763 8.12104H19.4832C19.1812 8.1269 18.8835 8.1924 18.6075 8.31374C18.3315 8.43507 18.0828 8.60981 17.876 8.8276C17.6693 9.0454 17.5086 9.30192 17.4034 9.58204C17.2983 9.86216 17.2507 10.1603 17.2637 10.4588C17.2962 11.0049 17.5293 11.5203 17.9192 11.9081C18.3092 12.296 18.829 12.5294 19.3807 12.5644C19.8715 12.5898 20.3573 12.4564 20.7646 12.1843C21.172 11.9122 21.4786 11.5162 21.6382 11.0562C21.79 10.6119 21.7961 10.1314 21.6556 9.6835C21.5151 9.23557 21.2352 8.843 20.8558 8.56177Z" fill="#6F6EFF"/>
</svg>
