<svg xmlns="http://www.w3.org/2000/svg" width="36.499" height="34.842" viewBox="0 0 36.499 34.842">
  <path id="Path_21" data-name="Path 21" d="M547.064,1230.7a.624.624,0,0,1-.614-.733l1.935-11.279-8.2-7.987a.625.625,0,0,1,.346-1.067l11.324-1.644,5.065-10.264a.628.628,0,0,1,.563-.349.619.619,0,0,1,.559.349l5.065,10.264,11.325,1.644a.625.625,0,0,1,.348,1.067l-8.2,7.99,1.935,11.279a.63.63,0,0,1-.25.611.621.621,0,0,1-.66.045l-10.126-5.324-10.13,5.324a.618.618,0,0,1-.293.074Zm-5.092-20.011,7.522,7.333a.625.625,0,0,1,.177.556l-1.775,10.352,9.3-4.891a.629.629,0,0,1,.581,0l9.3,4.891-1.776-10.352a.636.636,0,0,1,.18-.556l7.523-7.333-10.4-1.51a.615.615,0,0,1-.471-.342l-4.649-9.417-4.65,9.417a.632.632,0,0,1-.47.345Zm0,0" transform="translate(-539.237 -1196.623)" fill="#14141c" stroke="#14141c" stroke-linecap="round" stroke-linejoin="round" stroke-width="1.5"/>
</svg>
