<svg xmlns="http://www.w3.org/2000/svg" width="29.687" height="22.485" viewBox="0 0 29.687 22.485">
  <g id="Group_187" data-name="Group 187" transform="translate(-93.958 -295.875)">
    <path id="Path_27" data-name="Path 27" d="M518.1,1152.955l-6.559-3.589a1.2,1.2,0,0,0-1.783,1.057v7.115a1.2,1.2,0,0,0,1.775,1.061l6.559-3.526a1.2,1.2,0,0,0,.008-2.118Zm-6.6,3.689v-5.318l4.9,2.682Zm0,0" transform="translate(-404.729 -847.167)" fill="#14141c"/>
    <path id="Path_28" data-name="Path 28" d="M386.468,1069.307v-.014a6.788,6.788,0,0,0-1.309-3.445,4.833,4.833,0,0,0-3.2-1.5l-.147-.017-.052-.005c-3.924-.285-9.851-.324-9.911-.325h-.01c-.059,0-5.986.039-9.946.325l-.052.005-.139.017a4.71,4.71,0,0,0-3.181,1.547,7.112,7.112,0,0,0-1.3,3.383l0,.03c-.009.1-.218,2.466-.218,4.843v2.221c0,2.376.21,4.744.218,4.843l0,.015a6.724,6.724,0,0,0,1.3,3.4,4.931,4.931,0,0,0,3.307,1.479c.121.014.224.025.3.038l.069.01c2.266.215,9.371.322,9.672.326h.018c.06,0,5.986-.039,9.911-.325l.052-.005.167-.019a4.6,4.6,0,0,0,3.153-1.509,7.113,7.113,0,0,0,1.3-3.383l0-.03c.009-.1.219-2.466.219-4.843v-2.221c0-2.377-.21-4.743-.219-4.843Zm-1.521,7.064c0,2.2-.192,4.465-.21,4.672a5.516,5.516,0,0,1-.853,2.41,2.861,2.861,0,0,1-2.053.953l-.185.021c-3.8.274-9.5.317-9.762.318-.295,0-7.3-.112-9.492-.316-.113-.018-.234-.032-.362-.047a3.251,3.251,0,0,1-2.225-.929l-.016-.017a5.009,5.009,0,0,1-.837-2.386c-.014-.157-.211-2.449-.211-4.679v-2.221c0-2.2.192-4.46.21-4.672a5.407,5.407,0,0,1,.854-2.41,3,3,0,0,1,2.1-.992l.142-.017c3.851-.276,9.6-.317,9.8-.318s5.948.043,9.765.318l.153.018a3.115,3.115,0,0,1,2.131.965l.007.007a5.094,5.094,0,0,1,.837,2.421c.013.148.211,2.445.211,4.68Zm0,0" transform="translate(-263.042 -768.125)" fill="#14141c"/>
  </g>
</svg>
