<svg width="37" height="18" viewBox="0 0 37 18" fill="none" xmlns="http://www.w3.org/2000/svg">
<path fill-rule="evenodd" clip-rule="evenodd" d="M0 4.47509H2.86317L3.18644 8.27694C5.126 5.42555 7.06556 2.69298 9.05131 0H10.0211C7.94299 3.44543 5.86489 6.93045 3.87914 10.4551H1.75485L1.24687 6.2572C1.10833 5.22754 0.877422 4.79191 0 4.6731V4.47509ZM10.76 5.18787H7.34262L6.37284 10.4154H9.79017L10.0211 9.26693H8.12768L8.3124 8.35607H10.1134L10.2982 7.2076H8.5433L8.68184 6.29674H10.5752L10.76 5.18787ZM11.7296 5.18787H14.131C15.6549 5.18787 16.0705 5.94032 15.8858 6.85117C15.8228 7.19704 15.6389 7.5184 15.3587 7.7729C15.0784 8.02741 14.7147 8.20312 14.3157 8.27686L15.8396 10.4154H13.8539L12.6994 8.35607L12.33 10.4154H10.7598L11.7296 5.18787ZM13.0688 6.21754L12.8379 7.52442H13.2997C13.5235 7.53002 13.7418 7.4643 13.9124 7.33997C14.0829 7.21562 14.1937 7.04148 14.2233 6.85117C14.2389 6.76647 14.2324 6.67987 14.2045 6.59754C14.1765 6.51522 14.1277 6.4392 14.0615 6.37491C13.9954 6.31061 13.9135 6.25962 13.8217 6.22557C13.73 6.19153 13.6306 6.17525 13.5306 6.17793H13.0688V6.21754ZM18.7028 5.18787H17.1327L16.1629 10.4154H17.733L18.7028 5.18787ZM31.0242 12.273C31.0617 12.0968 31.1002 11.9153 31.1252 11.7222C29.8322 11.3658 28.2621 11.5638 27.7079 12.1579C27.4917 12.4101 27.3782 12.7162 27.3847 13.0291C27.4157 13.2612 27.5173 13.4821 27.6795 13.6698C27.8416 13.8575 28.0584 14.0053 28.3083 14.0984C28.4065 14.1511 28.5309 14.2037 28.6606 14.2586C29.0185 14.4101 29.4166 14.5787 29.4166 14.8112C29.4166 15.0884 29.0471 15.2469 28.7239 15.2865C28.1164 15.3171 27.5105 15.2077 26.969 14.9696C26.9336 15.3159 26.8719 15.6599 26.7843 15.9993C27.985 16.4349 29.6937 16.3557 30.4787 15.7221C30.6514 15.5795 30.7862 15.4066 30.8739 15.2152C30.9615 15.0238 31 14.8185 30.9867 14.6132C30.9405 13.9796 30.3402 13.7024 29.786 13.4647L29.767 13.4578C29.4415 13.3382 28.9086 13.1426 28.9086 12.8707C28.9086 12.5935 29.3242 12.4747 29.6475 12.4747C30.0905 12.4944 30.527 12.5747 30.9405 12.7123C30.9617 12.5671 30.9925 12.4219 31.0242 12.273ZM25.907 5.18787H24.3369L23.3671 10.4154H24.9373L25.907 5.18787ZM27.1077 5.18787H30.525L30.3403 6.29674H28.4469L28.2622 7.2076H30.0632L29.8785 8.35607H28.0775L27.8927 9.26693H29.7861L29.5552 10.4154H26.1379L27.1077 5.18787ZM19.9035 5.18787H23.4132L23.1823 6.29674H21.2889L21.1042 7.2076H22.859L22.6281 8.35607H20.8733L20.5039 10.4154H18.9338L19.9035 5.18787ZM33.4805 5.18787H31.4486L30.4788 10.4154H32.5108C33.4023 10.4408 34.2749 10.1909 34.9699 9.71126C35.6648 9.2316 36.1359 8.55399 36.2975 7.80164C36.4823 6.77197 35.9281 5.18787 33.4805 5.18787ZM33.1573 6.29674H32.834L32.2799 9.26694H32.6955C33.1911 9.26725 33.6692 9.10922 34.0363 8.82366C34.4034 8.5381 34.6334 8.1455 34.6812 7.72243C34.8198 7.00959 34.358 6.29674 33.1573 6.29674ZM3.55573 3.20786L1.06202 2.29702V2.13861H6.18799V2.29702L3.92516 5.58398H3.74045L3.55573 3.20786ZM12.5148 14.138C12.6083 14.1396 12.7 14.1601 12.7826 14.1977C12.8652 14.2353 12.9364 14.289 12.9903 14.3545C13.0442 14.4201 13.0794 14.4955 13.0931 14.5749C13.1068 14.6542 13.0985 14.7352 13.0689 14.8113C13.0476 14.9836 12.958 15.1444 12.8151 15.2669C12.6723 15.3894 12.4848 15.4662 12.2839 15.4845C12.1904 15.4829 12.0986 15.4625 12.016 15.4249C11.9334 15.3873 11.8623 15.3335 11.8083 15.268C11.7544 15.2025 11.7192 15.127 11.7055 15.0477C11.6919 14.9684 11.7002 14.8874 11.7297 14.8113C11.7511 14.639 11.8406 14.4782 11.9835 14.3557C12.1264 14.2332 12.3139 14.1564 12.5148 14.138ZM11.2679 11.6431H12.2839L11.9606 13.7024C12.0983 13.5795 12.2631 13.4811 12.4454 13.4132C12.6277 13.3452 12.824 13.3089 13.0227 13.3064C13.854 13.3064 14.362 13.9796 14.2234 14.8113C14.0849 15.6429 13.2998 16.3162 12.5148 16.3162C12.3353 16.323 12.1572 16.2857 12.0017 16.2085C11.8462 16.1312 11.7198 16.0174 11.6373 15.8805L11.5912 16.1973H10.4829L11.2679 11.6431ZM15.4703 13.3856H14.2697L15.2856 15.841L13.9926 17.623H15.1471L18.2412 13.3856H17.0866L16.0245 14.8113L15.4703 13.3856ZM24.3368 16.237L25.2142 11.6431H26.692L25.7684 16.237H24.3368ZM22.4255 13.0472C22.6394 12.5653 22.8548 12.0801 23.09 11.6034H24.6601C24.2907 12.3756 23.9097 13.138 23.5287 13.9004L23.5285 13.9006C23.1476 14.6629 22.7667 15.4251 22.3973 16.1973H20.8272L19.5432 12.2648C19.0251 11.9982 18.4728 11.8095 17.9641 11.7222V11.6034H20.3655C20.5224 11.6009 20.675 11.648 20.7941 11.7356C20.9133 11.8232 20.9908 11.9453 21.012 12.0787L21.4591 13.9608C21.5004 14.0442 21.5362 14.1298 21.566 14.2171L21.5199 14.0983L21.6584 14.6924C21.9312 14.1607 22.1774 13.6062 22.4255 13.0472ZM34.6812 16.237H36.0205L34.9121 11.6431H33.8038C33.6653 11.6431 33.2496 11.6431 33.1573 11.8015C33.0649 11.9203 32.9264 12.158 32.834 12.3164L30.8483 16.237H32.3722L32.6955 15.5242H34.4965C34.5427 15.643 34.5658 15.7618 34.5889 15.8806C34.612 15.9994 34.635 16.1182 34.6812 16.237ZM33.0649 14.5737L33.8038 12.8708L34.2656 14.5737H33.0649Z" fill="#6F6EFF"/>
</svg>
