<svg width="19" height="19" viewBox="0 0 19 19" fill="none" xmlns="http://www.w3.org/2000/svg">
<path d="M9.78773 0.698181C4.86627 0.698181 0.875 4.68945 0.875 9.61091C0.875 14.5324 4.86627 18.5236 9.78773 18.5236C14.7092 18.5236 18.7005 14.5324 18.7005 9.61091C18.7005 4.68945 14.7092 0.698181 9.78773 0.698181ZM13.677 13.7398C13.658 13.7398 13.6366 13.7398 13.6176 13.7398C12.9627 13.633 12.5166 13.1703 12.1346 12.7408C11.9186 12.4988 11.5912 11.9506 11.1972 12.0147C10.6396 12.1049 10.9149 13.0588 10.6823 13.4669C10.4949 13.7968 9.69281 13.7374 9.13992 13.6781C7.39581 13.493 6.50359 12.5628 5.7229 11.5615C4.88763 10.4913 4.23744 9.37362 3.63472 8.14206C3.44014 7.74341 3.18149 7.30442 3.18149 6.81085C3.46387 6.58068 3.92659 6.65898 4.39168 6.65898C4.78559 6.65898 5.40255 6.57118 5.69205 6.71831C5.8629 6.8061 6.0385 7.26883 6.17613 7.56544C6.4941 8.2441 6.78834 8.73292 7.17513 9.29056C7.34361 9.5326 7.59989 9.98583 7.90125 9.92651C8.19312 9.86718 8.22159 9.14819 8.23346 8.68547C8.2477 8.16105 8.23346 7.51086 8.08159 7.23323C7.93922 6.97221 7.67819 6.96509 7.41717 6.81085C7.63548 6.36949 8.23583 6.32677 8.95957 6.32677C9.56705 6.32677 10.4166 6.25796 10.6538 6.65898C10.8959 7.06713 10.7298 7.80273 10.7132 8.35325C10.6966 8.97259 10.5898 9.61091 11.0145 9.89566C11.3444 9.86007 11.52 9.53972 11.7098 9.29056C12.1274 8.74479 12.3861 8.2702 12.7088 7.56544C12.8417 7.27595 12.9841 6.78 13.2237 6.68746C13.5892 6.54983 14.1705 6.65661 14.7068 6.65661C15.1458 6.65661 15.9265 6.53559 16.0689 6.83695C16.1851 7.08848 15.8434 7.72205 15.7367 7.89528C15.3309 8.5597 14.9346 8.98208 14.4956 9.5587C14.32 9.78888 13.9593 10.1591 13.9807 10.5269C13.9973 10.8069 14.2773 11.0204 14.4956 11.2221C14.9655 11.6587 15.2953 11.9767 15.675 12.4632C15.8173 12.6459 16.1282 13.0422 16.0973 13.2795C16.0048 14.0269 14.2631 13.5618 13.677 13.7398Z" fill="#6F6EFF"/>
</svg>
