<svg xmlns="http://www.w3.org/2000/svg" width="23.482" height="28.179" viewBox="0 0 23.482 28.179">
  <g id="Group_68" data-name="Group 68" transform="translate(-532 -1182)">
    <path id="Path_26" data-name="Path 26" d="M551.864,1202.611h-1.547l.007-.9a.729.729,0,0,1,.728-.726h.1a.73.73,0,0,1,.729.726Zm-5.8-1.925a.662.662,0,0,0-.713.587v4.368a.728.728,0,0,0,1.428,0v-4.368a.663.663,0,0,0-.715-.587Zm9.42-2.443v8.31a3.749,3.749,0,0,1-3.842,3.625h-15.8a3.748,3.748,0,0,1-3.842-3.625v-8.31a3.748,3.748,0,0,1,3.842-3.625h15.8a3.749,3.749,0,0,1,3.842,3.625Zm-18.587,9.212V1198.7h1.958v-1.3l-5.221-.007v1.275l1.63,0v8.778Zm5.871-7.45h-1.633v4.675a8.531,8.531,0,0,1,0,1.133c-.133.362-.729.748-.963.039a9.476,9.476,0,0,1,0-1.14l-.006-4.707h-1.624l0,4.632c0,.711-.017,1.24.006,1.481.04.425.024.92.419,1.2a1.972,1.972,0,0,0,2.495-.836l0,.966,1.312,0v-7.448Zm5.224,5.354,0-3.893c0-1.481-1.112-2.369-2.617-1.171l.008-2.893-1.631,0-.008,9.985,1.341-.02.122-.622c1.714,1.573,2.792.5,2.789-1.389Zm5.111-.517-1.225.008c0,.047,0,.1,0,.165v.683a.668.668,0,0,1-.67.662h-.24a.668.668,0,0,1-.67-.662v-1.8h2.8v-1.055a16.975,16.975,0,0,0-.083-1.983c-.2-1.394-2.158-1.616-3.148-.9a1.841,1.841,0,0,0-.685.923,5.187,5.187,0,0,0-.208,1.645v2.319c0,3.857,4.684,3.311,4.126-.006Zm-6.28-12.594a1.11,1.11,0,0,0,.393.5,1.129,1.129,0,0,0,.668.185,1.036,1.036,0,0,0,.625-.194,1.506,1.506,0,0,0,.457-.585l-.031.64h1.821v-7.74h-1.432v6.024a.6.6,0,0,1-1.194,0v-6.024h-1.495v5.221c0,.665.012,1.108.032,1.333a2.241,2.241,0,0,0,.156.645Zm-5.516-4.372a6.482,6.482,0,0,1,.185-1.742,1.864,1.864,0,0,1,1.9-1.385,2.256,2.256,0,0,1,1.083.245,1.786,1.786,0,0,1,.7.634,2.53,2.53,0,0,1,.338.806,6.535,6.535,0,0,1,.09,1.267v1.958a10.73,10.73,0,0,1-.084,1.581,2.485,2.485,0,0,1-.359.941,1.689,1.689,0,0,1-.7.643,2.213,2.213,0,0,1-.987.208,2.716,2.716,0,0,1-1.052-.177,1.431,1.431,0,0,1-.671-.537,2.393,2.393,0,0,1-.342-.867,8.346,8.346,0,0,1-.1-1.526Zm1.425,3.074a.726.726,0,1,0,1.446,0v-4.12a.726.726,0,1,0-1.446,0Zm-5.036,2.081h1.717l0-5.936,2.029-5.085h-1.877l-1.079,3.776L537.39,1182h-1.859l2.159,5.1Zm0,0" fill="#14141c"/>
  </g>
</svg>
